<svg width="228" height="149" viewBox="0 0 228 149" fill="none" xmlns="http://www.w3.org/2000/svg">
<g clip-path="url(#clip0_61_3045)">
<path d="M224.047 35.13L220.482 52.3495L218.187 50.12L214.282 52.8957L211.297 49.2021L204.606 54.0551L198.887 44.5164L192.508 48.2434L189.978 44.7616L181.878 49.3136L179.441 44.1114L185.12 16.6843L215.56 22.953L224.047 35.13Z" fill="#EBEBEB"/>
<path d="M215.56 22.9531L224.047 35.1301L213.488 32.9563L215.56 22.9531Z" fill="#DBDBDB"/>
<path d="M219.722 55.7941L214.494 81.0585L173.491 72.6197L178.681 47.5522L181.118 52.7582L189.222 48.2062L191.748 51.6843L198.13 47.9573L203.846 57.496L210.541 52.643L213.522 56.3366L217.43 53.5608L219.722 55.7941Z" fill="#EBEBEB"/>
<path d="M161.036 52.8326L119.25 55.4114L115.931 1.91369L146.96 0L158.35 9.52756L161.036 52.8326Z" fill="#EBEBEB"/>
<path d="M146.96 0L158.35 9.52756L147.59 10.1927L146.96 0Z" fill="#DBDBDB"/>
<path d="M135.376 35.9923L135.215 34.7846C134.794 32.2838 135.48 29.4857 137.66 26.5613C139.623 23.9751 140.689 22.0911 140.573 19.9916C140.439 17.6135 138.856 16.1122 135.908 16.2311C134.224 16.324 132.388 16.9892 131.27 17.9405L129.984 15.0681C131.464 13.8641 134.087 12.9686 136.564 12.8311C141.937 12.5301 144.552 15.7035 144.754 19.2447C144.933 22.4144 143.286 24.7963 141.192 27.5795C139.273 30.1174 138.64 32.2095 138.912 34.5802L139.027 35.7879L135.383 35.9923H135.376ZM134.712 42.5731C134.616 40.8489 135.715 39.5707 137.35 39.4815C138.986 39.3886 140.175 40.5405 140.271 42.2647C140.365 43.896 139.359 45.2151 137.63 45.3117C135.994 45.4046 134.802 44.2081 134.709 42.5768L134.712 42.5731Z" fill="#DBDBDB"/>
<path d="M30.8729 26.8957L26.6664 24.9932L26.0852 26.2789C25.9138 26.6579 25.5412 26.8957 25.1277 26.9143C24.8967 26.9254 24.6694 26.9477 24.4421 26.9812C24.0323 27.0443 23.6224 26.8771 23.3802 26.5427L22.5568 25.3982L18.8012 28.0811L19.6246 29.2256C19.8668 29.56 19.8891 30.0022 19.6991 30.3701C19.591 30.5744 19.4979 30.7825 19.4159 30.9981C19.2669 31.3845 18.9167 31.6595 18.5031 31.6966L17.0947 31.8341L17.5493 36.4158L18.9614 36.2746C19.3749 36.2337 19.7662 36.4381 19.9934 36.7874C20.0531 36.884 20.1164 36.9769 20.1835 37.0698C20.2505 37.1627 20.3176 37.2519 20.3884 37.3411C20.6455 37.6644 20.7163 38.0991 20.5449 38.4744L19.9562 39.7676L24.1627 41.6701L24.7476 40.3844C24.919 40.0054 25.2916 39.7676 25.7052 39.749C25.9325 39.7378 26.1635 39.7155 26.3907 39.6821C26.8006 39.6189 27.2104 39.7861 27.4526 40.1206L28.276 41.2651L32.0317 38.5822L31.2083 37.4377C30.9661 37.1033 30.9437 36.6611 31.1337 36.2932C31.2381 36.0888 31.3349 35.8807 31.4169 35.6689C31.5659 35.2825 31.9162 35.0075 32.3297 34.9666L33.7381 34.8291L33.2836 30.2474L31.8715 30.3849C31.4579 30.4258 31.0704 30.2214 30.8431 29.8721C30.7835 29.7755 30.7165 29.6826 30.6494 29.5897C30.5823 29.4968 30.5153 29.4076 30.4445 29.3185C30.1837 28.9952 30.1166 28.5567 30.288 28.1814L30.8729 26.8957ZM28.4884 31.1355C29.703 32.83 29.3155 35.1821 27.6165 36.3972C25.9176 37.6086 23.5554 37.2222 22.337 35.5314C21.1224 33.837 21.5099 31.4774 23.2089 30.266C24.9078 29.0546 27.27 29.4448 28.4847 31.1393L28.4884 31.1355Z" fill="#EBEBEB"/>
<path d="M220.854 87.6878L218.052 89.3006L218.548 90.1552C218.693 90.4079 218.678 90.7163 218.522 90.9578C218.432 91.0916 218.354 91.2328 218.279 91.374C218.149 91.6304 217.884 91.7976 217.598 91.7976H216.606V95.023H217.598C217.888 95.023 218.149 95.1902 218.279 95.4466C218.354 95.5916 218.432 95.7291 218.522 95.8628C218.682 96.1044 218.693 96.4165 218.548 96.6655L218.052 97.5201L220.854 99.1328L221.349 98.2744C221.495 98.0218 221.77 97.8843 222.065 97.8991C222.143 97.9028 222.225 97.9066 222.303 97.9066C222.382 97.9066 222.463 97.9066 222.542 97.8991C222.832 97.8843 223.108 98.0218 223.253 98.2707L223.753 99.1328L226.554 97.5201L226.059 96.6617C225.914 96.4091 225.929 96.1006 226.089 95.8591C226.178 95.7253 226.256 95.5878 226.331 95.4429C226.461 95.1865 226.722 95.0193 227.013 95.0193H228.004V91.7939H227.013C226.722 91.7939 226.461 91.6267 226.331 91.3703C226.256 91.2254 226.178 91.0879 226.089 90.9541C225.929 90.7126 225.914 90.4005 226.059 90.1515L226.554 89.2931L223.753 87.6804L223.257 88.5388C223.112 88.7915 222.836 88.929 222.545 88.9141C222.467 88.9104 222.385 88.9067 222.307 88.9067C222.229 88.9067 222.147 88.9067 222.069 88.9141C221.778 88.929 221.498 88.7915 221.353 88.5388L220.858 87.6804L220.854 87.6878ZM222.303 90.772C223.768 90.772 224.952 91.9537 224.952 93.414C224.952 94.8744 223.768 96.056 222.303 96.056C220.839 96.056 219.654 94.8707 219.654 93.414C219.654 91.9574 220.843 90.772 222.303 90.772Z" fill="#EBEBEB"/>
<path d="M39.3755 13.1655L36.8046 15.1238L37.4082 15.9079C37.5871 16.1383 37.6132 16.4467 37.4865 16.7105C37.4157 16.8554 37.3561 17.0041 37.3002 17.1564C37.2033 17.4277 36.9649 17.6283 36.678 17.6655L35.6943 17.7918L36.1116 20.9912L37.0953 20.8649C37.3821 20.8277 37.6653 20.9578 37.8292 21.1993C37.9224 21.3331 38.0193 21.4594 38.1236 21.582C38.3136 21.8013 38.3658 22.106 38.254 22.3772L37.874 23.2876L40.8621 24.525L41.2421 23.6109C41.3539 23.3434 41.611 23.1687 41.9016 23.1464C41.9799 23.139 42.0581 23.1316 42.1401 23.1204C42.2183 23.1093 42.2966 23.0981 42.3748 23.0833C42.6617 23.0312 42.9523 23.1316 43.1274 23.362L43.7347 24.1534L46.3056 22.1952L45.702 21.4074C45.5269 21.177 45.5008 20.8686 45.6275 20.6048C45.6983 20.4598 45.7579 20.3112 45.8138 20.1626C45.9106 19.8913 46.1491 19.6906 46.436 19.6535L47.4196 19.5271L47.0023 16.3278L46.0187 16.4541C45.7318 16.4913 45.4486 16.3612 45.2847 16.1234C45.1953 15.9896 45.0947 15.8633 44.9903 15.7407C44.8003 15.5214 44.7482 15.2167 44.8599 14.9454L45.24 14.0313L42.2518 12.7939L41.8718 13.7081C41.76 13.9756 41.5029 14.1465 41.2161 14.1725C41.1378 14.18 41.0558 14.1874 40.9776 14.1986C40.8994 14.2097 40.8211 14.2208 40.7429 14.2357C40.456 14.2877 40.1616 14.1874 39.9865 13.957L39.3829 13.173L39.3755 13.1655ZM41.2086 16.0379C42.658 15.8484 43.9881 16.8703 44.1781 18.3158C44.3681 19.7613 43.3435 21.0915 41.8942 21.2773C40.4448 21.4668 39.1109 20.445 38.9247 18.9958C38.7346 17.5503 39.7592 16.2237 41.2123 16.0342L41.2086 16.0379Z" fill="#EBEBEB"/>
<path d="M20.1944 97.0035C20.3397 93.4065 20.2839 89.8058 20.0454 86.2163C19.5573 78.8105 18.3352 71.4604 16.6549 64.2367C15.7085 60.1678 14.546 56.1695 13.3351 52.1749C13.2979 52.056 13.1041 52.0895 13.1377 52.2158C16.8859 66.2991 19.9634 80.8282 19.7511 95.4688C19.6914 99.5638 19.2145 103.588 18.8271 107.661C18.8159 107.768 18.9947 107.813 19.0208 107.702C19.7958 104.216 20.0454 100.567 20.1907 97.0109L20.1944 97.0035Z" fill="#EBEBEB"/>
<path d="M13.1379 52.2122C13.1379 52.2122 7.45594 66.5927 8.73018 69.9704C10.0007 73.3519 12.6237 74.0728 12.6237 74.0728C12.6237 74.0728 9.14748 79.0223 11.5767 83.6635C14.006 88.3047 19.401 88.0854 19.7587 93.3471C19.7587 93.3471 20.0605 71.3416 13.1379 52.2122Z" fill="#EBEBEB"/>
<path d="M19.1442 84.2616C19.1517 84.2393 19.1479 84.2133 19.1368 84.1873C18.3394 74.4108 16.5995 64.664 13.6262 55.2591C13.6188 55.2331 13.5703 55.2405 13.5778 55.2702C14.703 59.4766 15.7052 63.7053 16.5622 67.9563C15.8245 67.1982 14.8595 66.7635 13.8498 66.4476C13.8311 66.4402 13.82 66.4699 13.8386 66.4774C14.8893 66.9307 15.8953 67.4546 16.6367 68.3427C16.8044 69.1751 16.9646 70.0112 17.1211 70.8435C15.8506 69.4278 14.092 68.7255 12.3296 68.0603C12.3035 68.0492 12.2924 68.0901 12.3147 68.0975C14.1478 68.8407 15.9772 69.8031 17.2217 71.3786C17.6539 73.7642 18.0339 76.161 18.3618 78.5614C17.434 77.5953 16.2902 76.945 14.975 76.6255C14.934 76.6143 14.9116 76.6738 14.9526 76.6849C16.3014 77.0714 17.4639 77.8257 18.3879 78.881C18.3953 78.8884 18.4028 78.8922 18.4102 78.8959C18.5257 79.7394 18.63 80.5866 18.7306 81.4338C18.0153 80.8244 17.2254 80.3637 16.3573 80.0069C16.3349 79.9958 16.32 80.0329 16.3461 80.0441C17.2291 80.4194 18.0227 80.9582 18.7232 81.6122C18.7344 81.6196 18.7418 81.6196 18.753 81.6233C18.8461 82.4297 18.943 83.2323 19.025 84.0424C17.7209 82.478 16.1114 81.3447 14.2075 80.6126C14.1702 80.5978 14.1516 80.6535 14.1851 80.6721C16.0368 81.4747 17.6688 82.7493 18.9318 84.3174C18.9654 84.362 19.0101 84.3657 19.0511 84.3545C19.174 85.5919 19.2821 86.833 19.3752 88.0741C19.3752 88.0927 19.405 88.0927 19.405 88.0741C19.3342 86.8033 19.2448 85.5325 19.1405 84.2616H19.1442Z" fill="white"/>
<path d="M14.5798 65.0171C13.5961 64.3408 12.3443 64.0547 11.1669 63.9543C11.1371 63.9543 11.1371 63.9952 11.1669 63.9989C12.389 64.181 13.4173 64.6232 14.5425 65.0988C14.5909 65.1211 14.6245 65.0468 14.5835 65.0171H14.5798Z" fill="white"/>
<path d="M15.2688 80.2448C14.4901 79.7766 13.5996 79.5127 12.7054 79.3715C12.6756 79.3678 12.6719 79.4161 12.7054 79.4198C13.6108 79.5833 14.4156 79.9066 15.239 80.3079C15.2725 80.3265 15.3023 80.2671 15.2688 80.2485V80.2448Z" fill="white"/>
<path d="M35.1272 70.2046C32.7575 71.8656 30.4848 73.783 28.5511 75.9383C26.4907 78.2347 24.9891 80.8432 23.9384 83.7379C21.7886 89.6685 20.6113 96.0896 20.5032 102.392C20.4436 105.926 20.7566 109.43 21.5166 112.882C21.5427 113.008 21.7327 112.971 21.7141 112.845C20.7864 106.769 20.8199 100.571 21.8184 94.5103C22.7946 88.5612 24.3259 82.0881 28.1189 77.2537C30.183 74.6228 32.7576 72.5494 35.3023 70.409C35.4364 70.2975 35.265 70.1117 35.1272 70.2083V70.2046Z" fill="#EBEBEB"/>
<path d="M21.3416 98.1072C21.3416 98.1072 23.294 94.8298 26.1331 91.9983C28.9759 89.1668 31.3679 87.1528 31.7368 85.2762C32.1056 83.4034 28.8902 82.0211 28.8902 82.0211C28.8902 82.0211 32.821 82.7234 33.8978 81.081C34.9745 79.4348 35.4924 69.9036 35.4924 69.9036C35.4924 69.9036 28.3388 74.9981 25.0041 82.14C21.6695 89.282 21.3379 98.1109 21.3379 98.1109L21.3416 98.1072Z" fill="#EBEBEB"/>
<path d="M33.0219 72.3449C30.0114 75.2953 26.9823 78.4353 25.2088 82.311C24.6015 83.6375 24.0836 85.0161 23.629 86.4207C23.629 86.4207 23.629 86.4244 23.629 86.4282C23.5359 86.7106 23.4464 86.9893 23.357 87.2754C23.3496 87.2903 23.3421 87.3051 23.3421 87.32C22.4665 90.2147 21.848 93.206 21.3115 96.1267C21.3115 96.1452 21.3376 96.1564 21.3413 96.1378C21.6506 94.6514 21.9896 93.1502 22.3697 91.6527C22.3846 91.6527 22.3957 91.6527 22.4107 91.6453C23.018 91.3889 23.6327 91.2291 24.2885 91.1697C24.3295 91.1659 24.3295 91.0916 24.2848 91.0953C23.6514 91.1251 23.0291 91.2365 22.4293 91.4335C22.7758 90.0846 23.1521 88.7357 23.5768 87.4092C24.9591 87.071 26.401 86.8889 27.8206 86.8555C27.8355 86.8555 27.8392 86.8332 27.8206 86.8332C26.3899 86.7663 25.0448 86.8889 23.6476 87.1862C23.7222 86.9595 23.7967 86.7329 23.8749 86.5062C24.8064 86.2944 25.7453 86.116 26.6991 86.0306C26.7177 86.0306 26.714 86.0008 26.6991 86.0008C25.7639 86.0268 24.8436 86.1235 23.9345 86.3353C24.322 85.1871 24.743 84.0537 25.2125 82.9501C25.6 82.036 26.0583 81.1702 26.565 80.3341C27.3288 80.1632 28.0702 79.9959 28.8564 79.9253C28.8787 79.9253 28.875 79.8882 28.8564 79.8882C28.1447 79.8436 27.4033 79.8956 26.714 80.1C27.0903 79.4943 27.4853 78.8998 27.91 78.3238C29.5159 77.9708 31.1403 77.6401 32.7797 77.9485C32.8095 77.9522 32.817 77.9076 32.7909 77.9002C31.2298 77.4914 29.6798 77.7255 28.1224 78.034C28.2938 77.8073 28.4652 77.588 28.6403 77.3651C29.6239 77.0604 30.6038 76.9155 31.6396 76.8969C31.6619 76.8969 31.6657 76.8672 31.6396 76.8635C30.697 76.7743 29.7543 76.8634 28.8452 77.1124C30.1716 75.47 31.6359 73.9242 33.0852 72.3969C33.1523 72.3263 33.1001 72.2855 33.0293 72.3561L33.0219 72.3449Z" fill="white"/>
<path d="M32.9399 78.8404C32.4705 78.7921 31.9898 78.7363 31.5167 78.7921C31.4608 78.7995 31.4645 78.8924 31.5204 78.8924C31.9898 78.9073 32.463 78.8701 32.9325 78.8961C32.9697 78.8961 32.9735 78.8441 32.9362 78.8404H32.9399Z" fill="white"/>
<path d="M27.7915 88.0891C27.0388 88.0816 26.2899 88.2823 25.5857 88.5313C25.5671 88.5387 25.5783 88.5684 25.5969 88.561C26.3235 88.3863 27.0612 88.3195 27.7989 88.1968C27.8585 88.1857 27.8548 88.0891 27.7915 88.0891Z" fill="white"/>
<path d="M26.2486 84.8935C25.943 84.8786 25.6152 84.9306 25.3134 84.9789C25.2836 84.9826 25.2836 85.0347 25.3134 85.0347C25.6189 85.0384 25.9505 85.0495 26.2523 84.9901C26.3044 84.9789 26.3044 84.8972 26.2486 84.8935Z" fill="white"/>
<path d="M0.369378 80.3228C2.67196 81.1217 4.95591 82.1473 7.02003 83.4441C9.21829 84.8301 11.0402 86.5915 12.5604 88.6909C15.6752 92.994 18.1156 97.9212 19.6619 102.993C20.53 105.84 21.0851 108.746 21.2752 111.715C21.2826 111.822 21.1224 111.837 21.1075 111.729C20.448 106.602 18.9838 101.593 16.7743 96.9142C14.6059 92.3251 11.8636 87.4424 7.67578 84.4028C5.39556 82.7492 2.83217 81.6642 0.276232 80.5197C0.142101 80.4602 0.238973 80.2707 0.373104 80.3153L0.369378 80.3228Z" fill="#EBEBEB"/>
<path d="M17.9923 99.7236C17.9923 99.7236 15.6525 97.52 12.6979 95.885C9.74329 94.2463 7.33639 93.1687 6.60612 91.7381C5.87213 90.3075 8.15608 88.4495 8.15608 88.4495C8.15608 88.4495 5.13814 89.9247 3.88625 88.8434C2.63436 87.7584 0.00390625 80.1631 0.00390625 80.1631C0.00390625 80.1631 6.97498 82.6379 11.3268 87.6469C15.6786 92.6559 17.9961 99.7273 17.9961 99.7273L17.9923 99.7236Z" fill="#EBEBEB"/>
<path d="M17.6268 98.1555C14.1394 91.6304 9.48958 85.7259 3.11464 81.8279C3.11464 81.8279 3.10719 81.8279 3.11464 81.8316C4.79127 82.8981 6.3375 84.128 7.77941 85.4732C6.49026 85.436 5.17504 85.6441 4.0312 86.2609C4.00512 86.2758 4.02375 86.3092 4.04983 86.3018C5.32407 85.8708 6.54988 85.5884 7.90609 85.6515C7.92472 85.6515 7.9359 85.6441 7.9508 85.6367C8.17808 85.8522 8.40163 86.0677 8.62145 86.287C7.9508 86.3167 7.27269 86.4096 6.62067 86.5508C6.60204 86.5545 6.60949 86.5805 6.6244 86.5768C7.33231 86.4393 8.02159 86.3947 8.74068 86.4021C9.9106 87.5727 10.9985 88.8249 12.0269 90.1255C11.5612 90.0586 11.0731 90.0957 10.626 90.2258C10.5924 90.2369 10.5999 90.2815 10.6371 90.2778C11.1439 90.2147 11.6282 90.2221 12.1312 90.2555C12.3212 90.4971 12.515 90.7386 12.7013 90.9838C11.2668 90.8984 9.86216 91.0359 8.47242 91.3926C8.45006 91.3963 8.45752 91.4298 8.47987 91.426C9.91805 91.1436 11.3637 91.0544 12.8242 91.1436C13.0031 91.3777 13.1707 91.6193 13.3458 91.8571C12.4889 91.8311 11.6618 91.9388 10.8272 92.1432C10.7936 92.1506 10.8048 92.1989 10.8383 92.1952C11.6953 92.002 12.5671 91.95 13.4464 91.9909C14.1953 93.0202 14.9144 94.0755 15.6037 95.1419C15.2386 95.0676 14.8548 95.1085 14.4971 95.2088C14.4785 95.2125 14.4822 95.2423 14.5046 95.2385C14.9144 95.1902 15.2982 95.2423 15.7006 95.2943C16.3228 96.2567 16.9227 97.2303 17.4964 98.2113C17.5449 98.293 17.679 98.2336 17.6343 98.1444L17.6268 98.1555Z" fill="white"/>
<path d="M12.2058 92.7451C11.524 92.6856 10.8309 92.7934 10.1789 92.9903C10.1603 92.9978 10.164 93.0238 10.1864 93.0201C10.857 92.8974 11.5202 92.8491 12.1983 92.8157C12.243 92.8157 12.2505 92.7488 12.2021 92.7451H12.2058Z" fill="white"/>
<path d="M6.12516 84.7894C5.81591 84.7559 5.49549 84.7931 5.18997 84.8451C5.15271 84.8525 5.16389 84.9046 5.20114 84.9008C5.50666 84.8674 5.81218 84.8785 6.1177 84.8711C6.16614 84.8711 6.17732 84.7968 6.12516 84.7931V84.7894Z" fill="white"/>
<path d="M26.9833 121.305H11.249L13.492 104.915L14.0658 100.712H24.1666L24.7403 104.915L26.9833 121.305Z" fill="#DBDBDB"/>
<path d="M24.7405 104.915H13.4922L14.066 100.712H24.1668L24.7405 104.915Z" fill="#C7C7C7"/>
<path d="M25.6085 99.2554H12.6201V102.815H25.6085V99.2554Z" fill="#DBDBDB"/>
<path d="M1.24414 121.305L29.5644 121.213L57.8846 121.183L114.525 121.12L171.165 121.179L199.486 121.213L227.806 121.305L199.486 121.395L171.165 121.428L114.525 121.491L57.8846 121.428L29.5644 121.395L1.24414 121.305Z" fill="#263238"/>
<path d="M115.271 149C174.274 149 222.106 143.773 222.106 137.325C222.106 130.877 174.274 125.649 115.271 125.649C56.2673 125.649 8.43555 130.877 8.43555 137.325C8.43555 143.773 56.2673 149 115.271 149Z" fill="#EBEBEB"/>
<path d="M90.4003 135.389C89.5322 135.682 64.6398 135.768 63.686 135.173C63.3245 134.95 63.101 131.335 62.952 126.957C62.9184 126.014 62.8924 125.036 62.87 124.044L60.8506 110.801L77.4903 110.693L79.0626 123.936L78.9992 126.85C78.9992 126.85 88.5449 131.067 89.5173 131.833C90.486 132.598 91.2647 135.088 90.3966 135.381L90.4003 135.389Z" fill="#EB9481"/>
<path d="M90.4006 135.389C89.5325 135.682 64.6401 135.768 63.6863 135.173C63.2466 134.898 63.0082 129.618 62.874 124.048L79.0666 123.944L79.0032 126.857C79.0032 126.857 88.5489 131.075 89.5213 131.84C90.4901 132.606 91.2688 135.095 90.4006 135.389Z" fill="white"/>
<path d="M90.4005 135.389C89.5324 135.682 64.64 135.768 63.6861 135.173C63.3247 134.95 63.1012 131.335 62.9521 126.957L79.0031 126.853C79.0031 126.853 88.5488 131.071 89.5212 131.836C90.4899 132.602 91.2686 135.091 90.4005 135.385V135.389Z" fill="#A6A6A6"/>
<path d="M90.0391 134.396C85.8662 134.307 69.0253 134.348 64.8933 134.578C64.8598 134.578 64.8598 134.604 64.8933 134.604C69.029 134.783 85.8662 134.604 90.0391 134.463C90.1285 134.463 90.1285 134.396 90.0391 134.396Z" fill="#263238"/>
<path d="M87.9184 130.952C86.9273 130.915 85.9623 131.387 85.4258 131.977C84.9079 132.542 84.4683 133.341 84.5018 134.203C84.5018 134.229 84.5502 134.229 84.554 134.203C84.785 132.572 86.2679 131.138 87.9221 131.004C87.9557 131.004 87.9557 130.952 87.9221 130.952H87.9184Z" fill="#263238"/>
<path d="M80.6238 127.266C78.9546 127.247 77.0209 127.842 75.9851 129.209C75.9441 129.261 76.0224 129.317 76.0708 129.291C77.5798 128.51 79.0105 127.927 80.6536 127.47C80.7691 127.436 80.743 127.266 80.6238 127.266Z" fill="#263238"/>
<path d="M81.9168 127.764C80.2476 127.745 78.3139 128.34 77.2781 129.707C77.2371 129.759 77.3153 129.815 77.3638 129.789C78.869 129.008 80.3035 128.425 81.9466 127.968C82.0621 127.935 82.036 127.764 81.9168 127.764Z" fill="#263238"/>
<path d="M83.2058 128.261C81.5367 128.243 79.6029 128.837 78.5671 130.205C78.5262 130.257 78.6044 130.313 78.6528 130.287C80.1581 129.506 81.5925 128.923 83.2356 128.466C83.3511 128.432 83.3251 128.261 83.2058 128.261Z" fill="#263238"/>
<path d="M84.4988 128.756C82.8296 128.737 80.8959 129.332 79.8601 130.699C79.8191 130.751 79.8974 130.807 79.9458 130.781C81.4511 130 82.8855 129.417 84.5286 128.96C84.6441 128.926 84.618 128.756 84.4988 128.756Z" fill="#263238"/>
<path d="M65.9436 130.625C64.0695 130.636 64.0844 133.542 65.9622 133.531C67.8363 133.519 67.8214 130.614 65.9436 130.625Z" fill="#263238"/>
<path d="M82.4122 122.814C81.5627 122.119 80.5009 122.807 79.983 123.531C79.1446 124.709 78.5671 126.359 78.4814 127.797C78.4814 127.834 78.5075 127.845 78.5336 127.845C78.5709 127.964 78.7124 128.065 78.8354 127.979C80.0202 127.154 81.3913 126.418 82.2893 125.255C82.8146 124.575 83.217 123.472 82.4122 122.814ZM80.3742 126.363C79.8004 126.783 79.2117 127.173 78.6528 127.611C78.9472 126.779 79.2043 125.939 79.5843 125.14C79.7669 124.757 79.9569 124.367 80.1916 124.014C80.553 123.464 82.1887 122.063 82.3601 123.877C82.4569 124.876 81.0597 125.861 80.3742 126.363Z" fill="#263238"/>
<path d="M74.3338 128.432C75.7906 128.652 77.2884 128.232 78.7154 128.005C78.8644 127.983 78.898 127.812 78.8383 127.7C78.8607 127.682 78.8682 127.656 78.8421 127.63C77.7802 126.656 76.2191 125.865 74.7958 125.593C73.9165 125.426 72.6721 125.668 72.5454 126.757C72.4261 127.786 73.4843 128.302 74.3338 128.429V128.432ZM73.3203 127.489C72.184 126.065 74.3338 125.943 74.9784 126.088C75.3919 126.184 75.8018 126.329 76.1967 126.482C77.0276 126.797 77.7951 127.225 78.5887 127.619C77.8808 127.686 77.1841 127.816 76.4799 127.908C75.6378 128.02 73.9463 128.276 73.3203 127.489Z" fill="#263238"/>
<path d="M36.4014 49.596C36.4014 49.596 55.7274 82.3851 56.2453 84.6852C57.0389 88.2227 61.2565 123.156 61.2565 123.156L81.365 122.795C81.365 122.795 77.8999 91.9944 74.6175 81.8463C72.2515 74.5371 55.1983 50.2946 55.1983 50.2946L36.4051 49.5923L36.4014 49.596Z" fill="#37474F"/>
<path d="M79.535 119.722C76.6475 119.7 66.4125 119.585 62.5712 119.945C62.5414 119.945 62.5414 119.997 62.5712 120.001C63.8939 120.191 76.6512 119.897 79.535 119.804C79.5909 119.804 79.5872 119.726 79.535 119.726V119.722Z" fill="#263238"/>
<path d="M39.6986 52.6059C40.9654 54.5865 42.303 56.5262 43.5958 58.4919C44.8924 60.4576 46.1816 62.4233 47.4558 64.4039C50.0006 68.3576 52.482 72.3522 54.915 76.3728C56.0551 78.2568 57.1431 80.163 57.9292 82.2179C58.7042 84.2542 59.2333 86.376 59.6245 88.5126C60.0194 90.6641 60.2765 92.8379 60.5224 95.0117C60.7832 97.3267 61.0403 99.638 61.3011 101.953C61.8302 106.687 62.3593 111.421 62.8921 116.155C62.9554 116.735 63.0225 117.318 63.0783 117.898C63.0858 117.983 62.933 117.998 62.9219 117.913C62.3294 113.208 61.8376 108.493 61.3011 103.781C61.0328 101.437 60.7646 99.0918 60.5001 96.7471C60.2504 94.5658 60.0157 92.3846 59.6766 90.2145C59.345 88.0853 58.9091 85.9635 58.2608 83.9012C57.5827 81.746 56.6177 79.7245 55.4813 77.7663C53.1527 73.7568 50.6861 69.818 48.2196 65.8865C45.7308 61.9217 43.2233 57.9717 40.6189 54.0774C40.2985 53.5981 39.9743 53.1187 39.639 52.6468C39.6129 52.6096 39.6762 52.5762 39.7023 52.6134L39.6986 52.6059Z" fill="#263238"/>
<path d="M42.7356 137.325C41.8191 137.269 18.145 127.704 17.4855 126.798C17.4631 126.768 17.452 126.708 17.4482 126.623C17.452 125.813 19.0913 122.97 20.4625 119.239C20.5482 119.002 21.1592 117.894 22.0087 116.4C24.3411 112.302 28.4656 105.282 28.4656 105.282L43.9391 111.414L36.5321 122.472L35.3808 125.148C35.3808 125.148 42.6425 132.631 43.2572 133.705C43.8683 134.776 43.6522 137.377 42.7393 137.325H42.7356Z" fill="#EB9481"/>
<path d="M42.7356 137.325C41.8191 137.269 18.145 127.704 17.4855 126.797C17.4631 126.768 17.452 126.708 17.4482 126.623C17.452 125.813 19.0913 122.97 20.4625 119.239C20.5482 119.002 21.1592 117.894 22.0087 116.4L36.5321 122.468L35.3808 125.144C35.3808 125.144 42.6425 132.628 43.2572 133.702C43.8683 134.772 43.6522 137.373 42.7393 137.321L42.7356 137.325Z" fill="white"/>
<path d="M42.7354 137.321C41.8189 137.269 18.1485 127.701 17.489 126.794C17.2394 126.452 18.2975 123.227 20.466 119.24L35.3806 125.148C35.3806 125.148 42.6423 132.628 43.2571 133.702C43.8681 134.772 43.652 137.373 42.7354 137.321Z" fill="#A6A6A6"/>
<path d="M42.7731 136.27C38.9392 134.627 23.3129 128.362 19.397 127.032C19.3635 127.021 19.3561 127.043 19.3859 127.058C23.1527 128.767 38.8274 134.906 42.747 136.336C42.8289 136.366 42.855 136.307 42.7731 136.273V136.27Z" fill="#263238"/>
<path d="M42.1027 132.282C41.1973 131.877 40.128 131.955 39.4051 132.301C38.7121 132.632 38.0042 133.204 37.7099 134.018C37.7024 134.04 37.7434 134.059 37.7583 134.036C38.5855 132.613 40.5005 131.836 42.084 132.331C42.1176 132.342 42.1325 132.297 42.1027 132.282Z" fill="#263238"/>
<path d="M36.7256 126.133C35.1831 125.494 33.1674 125.319 31.6957 126.2C31.6398 126.233 31.6882 126.315 31.7441 126.307C33.4357 126.148 34.9819 126.144 36.6772 126.333C36.7964 126.348 36.8374 126.177 36.7256 126.133Z" fill="#263238"/>
<path d="M37.7354 127.076C36.1929 126.434 34.1772 126.263 32.7055 127.143C32.6496 127.177 32.698 127.258 32.7539 127.251C34.4454 127.091 35.9917 127.088 37.6869 127.277C37.8061 127.292 37.8471 127.121 37.7354 127.076Z" fill="#263238"/>
<path d="M38.749 128.02C37.2065 127.381 35.1908 127.206 33.7191 128.087C33.6632 128.12 33.7117 128.202 33.7676 128.195C35.4591 128.035 37.0053 128.031 38.7006 128.221C38.8198 128.236 38.8608 128.065 38.749 128.02Z" fill="#263238"/>
<path d="M39.7588 128.964C38.2163 128.321 36.2006 128.15 34.7289 129.031C34.673 129.064 34.7214 129.146 34.7773 129.139C36.4689 128.979 38.0151 128.975 39.7104 129.165C39.8296 129.18 39.8706 129.009 39.7588 128.964Z" fill="#263238"/>
<path d="M21.8565 123.754C20.1165 123.063 19.036 125.761 20.7797 126.452C22.5197 127.143 23.6002 124.446 21.8565 123.754Z" fill="#263238"/>
<path d="M40.0604 122.677C39.5351 121.714 38.2943 121.952 37.538 122.435C36.3159 123.212 35.1646 124.527 34.5424 125.828C34.5275 125.861 34.5461 125.884 34.5722 125.891C34.561 126.014 34.6542 126.162 34.7995 126.129C36.2079 125.809 37.7578 125.638 39.0246 124.899C39.7661 124.464 40.5559 123.591 40.0604 122.68V122.677ZM36.8375 125.204C36.1483 125.378 35.4552 125.519 34.7697 125.716C35.3546 125.055 35.9098 124.375 36.5655 123.773C36.8785 123.487 37.2027 123.197 37.5492 122.955C38.0894 122.58 40.1312 121.896 39.6096 123.639C39.3227 124.602 37.6572 124.992 36.8338 125.2L36.8375 125.204Z" fill="#263238"/>
<path d="M30.4588 124.862C31.7256 125.609 33.2718 125.78 34.6802 126.107C34.8255 126.14 34.9224 125.995 34.9112 125.872C34.9373 125.865 34.9559 125.843 34.941 125.809C34.3225 124.509 33.175 123.19 31.9529 122.409C31.2003 121.926 29.9558 121.685 29.4305 122.643C28.9312 123.554 29.7174 124.427 30.4588 124.862ZM29.8776 123.606C29.3597 121.859 31.4015 122.55 31.9417 122.929C32.2882 123.171 32.6124 123.461 32.9253 123.751C33.5774 124.353 34.1288 125.036 34.7137 125.698C34.0319 125.497 33.3389 125.356 32.6496 125.178C31.8299 124.966 30.1645 124.568 29.8813 123.606H29.8776Z" fill="#263238"/>
<path d="M37.7278 121.852L20.4062 114.877C20.4062 114.877 41.8821 83.3884 42.0386 81.0437C42.1802 78.9665 32.7463 60.8998 32.3737 55.6344C31.9713 49.9528 34.7173 45.5532 37.7315 42.8257L55.6007 50.3987C55.6007 50.3987 53.7154 53.4086 50.7459 55.0807C50.7459 55.0807 59.9078 75.964 59.3899 82.3851C58.8683 88.8396 37.7278 121.852 37.7278 121.852Z" fill="#37474F"/>
<path d="M38.4951 118.567C35.9913 117.493 36.7253 117.764 34.2066 116.72C32.9734 116.207 24.8808 112.852 23.6476 112.577C23.6215 112.569 23.6029 112.614 23.6252 112.629C24.702 113.286 32.8542 116.501 34.0986 116.991C36.6359 117.987 35.9168 117.675 38.4653 118.645C38.5137 118.663 38.5435 118.593 38.4951 118.57V118.567Z" fill="#263238"/>
<path d="M53.6849 54.7016C51.822 55.0992 49.9963 55.7569 48.2415 56.4629C48.1744 56.4889 48.2042 56.593 48.2787 56.5707C50.1044 56.0393 51.9636 55.5414 53.7557 54.9134C53.8973 54.8651 53.8265 54.6719 53.6849 54.7016Z" fill="#263238"/>
<path d="M51.5651 53.9697C51.39 54.2744 51.2409 54.5977 51.1068 54.9247C51.0025 55.1774 50.8721 55.4487 50.8721 55.7236C50.8721 55.7757 50.9429 55.7905 50.9764 55.7571C51.185 55.5527 51.2931 55.2554 51.4235 55.0027C51.5763 54.7092 51.7327 54.4156 51.8781 54.1184C51.9749 53.9214 51.6694 53.7802 51.5614 53.966L51.5651 53.9697Z" fill="#263238"/>
<path d="M51.7811 52.2938C51.8891 52.0188 52.0009 51.7475 52.1164 51.4726C52.2356 51.1901 52.3735 50.9152 52.4741 50.6253C52.489 50.5807 52.5635 50.6105 52.5449 50.6551C52.4368 50.93 52.366 51.2236 52.2766 51.506C52.1872 51.7884 52.0978 52.0708 52.0009 52.3532C51.8258 52.8772 51.6134 53.3974 51.3861 53.9027C51.6767 53.899 51.9785 53.8879 52.2431 53.7541C52.53 53.6092 52.7051 53.3045 52.8467 53.0295C53.0031 52.7211 53.1485 52.409 53.3124 52.1043C53.4912 51.7661 53.6887 51.4354 53.8079 51.0712C53.8228 51.0266 53.8936 51.0564 53.8787 51.101C53.6105 51.8516 53.3459 52.6059 52.9249 53.2971C52.761 53.5683 52.6268 53.8544 52.325 53.9585C52.0009 54.0737 51.6432 54.0514 51.3042 54.0254C51.2632 54.0365 51.2073 54.0105 51.2222 53.9585C51.3824 53.3974 51.5612 52.8289 51.7811 52.2863V52.2938Z" fill="#263238"/>
<path d="M51.0218 55.7644C51.6552 57.1059 52.2141 58.4436 52.8102 59.7813C53.3915 61.0893 53.9317 62.4122 54.4608 63.7387C55.5264 66.4253 56.4802 69.1602 57.3185 71.9248C57.7321 73.2923 58.1159 74.6709 58.4586 76.0569C58.8051 77.4467 59.1405 78.8513 59.2858 80.2819C59.4311 81.7162 59.3268 83.132 58.9281 84.518C58.522 85.9226 57.9854 87.1526 57.352 88.468C56.9646 89.2707 56.8304 89.1629 57.0167 88.7579C57.5495 87.6059 58.9467 84.1167 58.8461 81.1849C58.7977 79.7691 58.5071 78.3756 58.1866 77.0008C57.8588 75.5962 57.4899 74.2027 57.0875 72.8204C56.2939 70.0929 55.3513 67.4212 54.3825 64.7532C53.8386 63.2594 53.2573 61.7805 52.7059 60.2867C52.1508 58.7854 51.577 57.4329 50.9622 55.7904C50.9473 55.7458 51.0106 55.7235 51.0293 55.7644H51.0218Z" fill="#263238"/>
<path d="M37.8727 51.3276C38.182 51.2124 38.6142 51.402 38.9309 51.454C39.337 51.5209 39.7468 51.5617 40.1567 51.5766C40.5628 51.5915 40.9689 51.5766 41.375 51.5357C41.7774 51.4986 42.191 51.4465 42.5412 51.2273C43.1336 50.8594 43.6254 50.2129 44.0278 49.6518C44.4675 49.0386 44.9258 48.3326 45.1866 47.6229C45.2015 47.5783 45.2648 47.608 45.2536 47.6526C45.1232 48.0651 45.0264 48.485 44.8587 48.89C44.7022 49.269 44.501 49.6332 44.2887 49.9862C43.89 50.6402 43.4317 51.3425 42.7461 51.7327C42.0271 52.1414 41.103 52.1154 40.302 52.0708C39.84 52.0448 39.378 51.9816 38.9234 51.8887C38.5955 51.8181 38.0441 51.7661 37.8355 51.48C37.7982 51.428 37.8168 51.3499 37.8802 51.3276H37.8727Z" fill="#263238"/>
<path d="M25.35 111.585C28.1966 107.289 30.991 102.956 33.7332 98.5939C36.4829 94.2202 39.1841 89.8132 41.8481 85.3839C42.4852 84.3248 43.2192 83.2658 43.6291 82.0916C44.0762 80.817 43.8228 79.5796 43.4167 78.3311C42.6752 76.0421 41.755 73.8163 40.7564 71.6276C39.7579 69.4315 38.6811 67.2726 37.623 65.1062C36.5723 62.9584 35.4583 60.7995 34.6609 58.5402C33.9009 56.3813 33.6102 54.1443 34.1952 51.9073C34.7727 49.6852 36.0246 47.6935 37.3324 45.8319C37.6789 45.3414 38.0291 44.8546 38.3756 44.3641C38.4017 44.3269 38.4576 44.3715 38.4315 44.4087C36.9896 46.3484 35.5849 48.4033 34.7392 50.6811C34.3219 51.807 34.0499 52.9924 34.0238 54.1926C33.9977 55.4114 34.225 56.6228 34.5864 57.7859C35.2869 60.0452 36.3935 62.1855 37.4255 64.3073C38.4799 66.4774 39.5604 68.6326 40.5776 70.8213C41.5985 73.0211 42.556 75.258 43.3422 77.5545C43.6924 78.5763 44.0836 79.6465 44.0575 80.7427C44.0315 81.9429 43.4577 83.0243 42.8615 84.035C40.2721 88.442 37.582 92.7896 34.8621 97.1149C32.1311 101.455 29.3441 105.766 26.5125 110.043C26.1548 110.581 25.7971 111.12 25.4394 111.659C25.3947 111.726 25.2979 111.648 25.3426 111.581L25.35 111.585Z" fill="#263238"/>
<path d="M56.5916 30.3699C58.2049 33.9 66.3497 38.7641 70.1649 39.288C72.9109 39.6634 81.2456 39.7934 84.1034 39.3586C87.4529 38.8496 84.8932 29.8348 82.9148 30.0652C77.4751 30.7006 72.855 31.4066 71.4056 31.4066C69.6321 31.4066 60.0381 28.3336 58.8793 27.9025C56.0514 26.8435 55.6751 28.3707 56.5916 30.3699Z" fill="#EB9481"/>
<path d="M56.644 31.3061C58.6858 34.3197 65.4743 39.247 65.4743 39.247L66.4169 37.1661L69.5355 30.288C69.5355 30.288 63.3021 28.326 59.1999 27.4527C58.6448 27.3338 58.1567 27.2632 57.732 27.2446C55.1127 27.1034 54.8854 28.7199 56.6477 31.3098L56.644 31.3061Z" fill="#14B8A6"/>
<path d="M56.644 31.3064C58.6858 34.32 65.4743 39.2473 65.4743 39.2473L66.4169 37.1664C63.8871 34.2345 59.9786 29.794 57.732 27.2412C55.1127 27.1 54.8854 28.7164 56.6477 31.3064H56.644Z" fill="#263238"/>
<path d="M64.2486 37.8538C64.7664 36.5904 67.069 31.4885 67.6428 30.4183C67.6838 30.344 67.7397 30.3514 67.7061 30.4332C66.2456 34.2569 64.867 36.6573 64.297 37.8724C64.2821 37.9021 64.2336 37.8873 64.2448 37.8538H64.2486Z" fill="#263238"/>
<path d="M81.9197 30.1656C85.232 29.7309 89.3267 28.9914 92.7918 30.4592C93.4736 30.7453 93.7195 31.2544 93.7195 31.2544C95.2844 31.8861 95.4558 32.8113 95.4558 32.8113C96.7337 33.8444 96.7785 34.8179 96.7785 34.8179C96.7785 34.8179 98.6079 35.5797 98.3321 36.7576C98.0266 38.0805 95.5154 36.7576 93.686 36.8654C89.4981 37.1218 83.615 38.6564 82.4153 38.8534L81.916 30.1693L81.9197 30.1656Z" fill="#EB9481"/>
<path d="M89.107 34.0598C90.3403 34.0078 91.5512 33.926 92.7882 34.0412C94.1444 34.1676 95.4261 34.5169 96.7376 34.8401C96.7786 34.8513 96.7972 34.7955 96.7562 34.777C94.4685 33.8183 91.5363 33.5656 89.1033 34.0041C89.0437 34.0152 89.0437 34.0635 89.1033 34.0598H89.107Z" fill="#263238"/>
<path d="M88.5853 31.5591C89.7887 31.574 91.905 31.6186 95.4446 32.8486C95.4557 32.8523 95.4669 32.8337 95.4557 32.83C93.2649 31.7264 91.0182 31.3325 88.589 31.5034C88.5145 31.5071 88.507 31.5591 88.589 31.5591H88.5853Z" fill="#263238"/>
<path d="M88.3281 30.2139C90.3736 30.318 91.6515 30.645 93.7082 31.2618C93.7194 31.2618 93.7306 31.2469 93.7157 31.2395C91.4503 30.2919 90.5226 30.2065 88.3206 30.1433C88.2461 30.1433 88.2461 30.2102 88.3281 30.2139Z" fill="#263238"/>
<path d="M88.6596 37.4934C88.1268 37.7424 88.2535 38.0211 89.2743 38.2589C90.3027 38.5004 94.5203 38.5636 94.3713 40.0314C94.226 41.5066 88.2572 41.3171 86.5917 40.7968C84.9263 40.2803 82.415 38.8497 82.415 38.8497C83.585 38.6528 86.3719 37.9059 88.6596 37.4934Z" fill="#EB9481"/>
<path d="M61.0219 35.9996C60.9958 36.635 60.9325 37.2816 60.843 37.9207C60.8505 37.8984 60.8617 37.8761 60.8691 37.8538C60.9921 37.5194 61.115 37.1775 61.2641 36.8542C61.2715 36.8356 61.3013 36.8431 61.2976 36.8617C61.2305 37.2109 61.1076 37.564 60.9734 37.8947C60.9101 38.0545 60.843 38.2105 60.776 38.3666C60.7313 38.6527 60.6791 38.9351 60.6195 39.2138C60.5077 39.7452 60.0047 42.0045 59.8929 42.3872C59.8706 42.4689 59.7737 42.4504 59.7774 42.3612C59.8035 41.945 60.2283 39.5891 60.314 39.0577C60.4779 38.0359 60.7052 36.9917 60.9772 35.9921C60.9846 35.9698 61.0182 35.981 61.0182 36.0033L61.0219 35.9996Z" fill="#263238"/>
<path d="M57.1399 52.8921C56.145 53.4049 54.8634 54.1964 49.0883 53.0593C48.7269 52.985 48.3655 52.8995 48.0003 52.7918C42.5867 51.1679 36.0888 44.8175 35.7236 44.3716C35.7236 44.3716 44.3229 30.463 55.3254 26.0894C56.6853 25.5505 58.9357 26.591 60.1839 27.8878C60.6273 28.3523 61.596 31.7635 61.2234 34.5282C60.8508 37.2891 58.1384 52.3867 57.1361 52.8921H57.1399Z" fill="#14B8A6"/>
<path d="M56.3719 34.4019C56.4017 34.6991 56.3794 34.9927 56.3421 35.2825C56.2974 35.5724 56.2415 35.8585 56.1297 36.1372C56.0962 35.8399 56.1223 35.5463 56.1595 35.2565C56.2042 34.9667 56.2601 34.6805 56.3719 34.4019Z" fill="white"/>
<path d="M52.62 43.8738C52.6498 44.1711 52.6274 44.4646 52.5901 44.7544C52.5454 45.0443 52.4895 45.3304 52.3778 45.6091C52.3442 45.3118 52.3703 45.0183 52.4076 44.7284C52.4523 44.4386 52.5082 44.1525 52.62 43.8738Z" fill="white"/>
<path d="M46.2459 36.7168C46.2757 37.0141 46.2534 37.3076 46.2161 37.5975C46.1714 37.8873 46.1155 38.1734 46.0037 38.4521C45.9702 38.1549 45.9963 37.8613 46.0336 37.5715C46.0783 37.2816 46.1342 36.9955 46.2459 36.7168Z" fill="white"/>
<path d="M58.828 43.3943C58.8578 43.6916 58.8354 43.9851 58.7982 44.275C58.7534 44.5648 58.6976 44.8509 58.5858 45.1296C58.5522 44.8323 58.5783 44.5388 58.6156 44.2489C58.6603 43.9591 58.7162 43.673 58.828 43.3943Z" fill="white"/>
<path d="M50.6416 35.4869C50.9397 35.4572 51.234 35.4795 51.5246 35.5166C51.8152 35.5612 52.1021 35.617 52.3816 35.7285C52.0835 35.7619 51.7892 35.7359 51.4985 35.6987C51.2079 35.6541 50.921 35.5984 50.6416 35.4869Z" fill="white"/>
<path d="M43.4062 42.3316C43.7043 42.3019 43.9987 42.3242 44.2893 42.3614C44.5799 42.406 44.8668 42.4617 45.1462 42.5732C44.8482 42.6066 44.5538 42.5806 44.2632 42.5435C43.9726 42.4989 43.6857 42.4431 43.4062 42.3316Z" fill="white"/>
<path d="M51.916 49.7374C52.2141 49.7077 52.5084 49.73 52.799 49.7671C53.0897 49.8117 53.3766 49.8675 53.656 49.9789C53.3579 50.0124 53.0636 49.9864 52.773 49.9492C52.4823 49.9046 52.1955 49.8489 51.916 49.7374Z" fill="white"/>
<path d="M41.1748 47.047C41.4729 47.0173 41.7672 47.0395 42.0578 47.0767C42.3484 47.1213 42.6353 47.177 42.9148 47.2885C42.6167 47.322 42.3224 47.2959 42.0317 47.2588C41.7411 47.2142 41.4542 47.1585 41.1748 47.047Z" fill="white"/>
<path d="M56.3164 27.7467C56.6145 27.717 56.9088 27.7393 57.1994 27.7764C57.4901 27.821 57.7769 27.8767 58.0564 27.9882C57.7583 28.0217 57.464 27.9957 57.1734 27.9585C56.8827 27.9139 56.5958 27.8582 56.3164 27.7467Z" fill="white"/>
<path d="M54.2115 30.1174C54.0214 30.3515 53.7979 30.541 53.5669 30.7194C53.3322 30.8941 53.09 31.0538 52.8105 31.1727C53.0006 30.9386 53.2241 30.7491 53.4551 30.5708C53.6898 30.3961 53.9358 30.2363 54.2115 30.1174Z" fill="white"/>
<path d="M42.7398 36.8506C42.5498 37.0847 42.3262 37.2742 42.0952 37.4526C41.8605 37.6272 41.6183 37.787 41.3389 37.9059C41.5289 37.6718 41.7524 37.4823 41.9834 37.3039C42.2182 37.133 42.4641 36.9695 42.7398 36.8506Z" fill="white"/>
<path d="M57.065 39.894C56.875 40.1281 56.6514 40.3177 56.4204 40.496C56.1857 40.6707 55.9435 40.8304 55.6641 40.9494C55.8541 40.7153 56.0776 40.5257 56.3086 40.3474C56.5434 40.1765 56.7893 40.013 57.065 39.894Z" fill="white"/>
<path d="M47.7876 45.7205C47.5976 45.9546 47.3741 46.1441 47.1431 46.3224C46.9083 46.4971 46.6662 46.6569 46.3867 46.7758C46.5767 46.5417 46.8003 46.3522 47.0313 46.1738C47.266 45.9992 47.5119 45.8394 47.7876 45.7205Z" fill="white"/>
<path d="M60.6197 31.9307C60.4297 32.1648 60.2061 32.3543 59.9751 32.5326C59.7404 32.7073 59.4982 32.8671 59.2188 32.986C59.4088 32.7519 59.6323 32.5624 59.8633 32.384C60.0981 32.2131 60.344 32.0496 60.6197 31.9307Z" fill="white"/>
<path d="M60.4224 38.6862C60.1877 38.4967 59.9977 38.2738 59.8188 38.0434C59.6437 37.8093 59.4835 37.5678 59.3643 37.2891C59.599 37.4786 59.789 37.7015 59.9678 37.9319C60.1392 38.166 60.3032 38.4113 60.4224 38.6862Z" fill="white"/>
<path d="M39.7476 43.3349C39.5129 43.1454 39.3228 42.9225 39.144 42.6921C38.9689 42.458 38.8087 42.2164 38.6895 41.9377C38.9242 42.1273 39.1142 42.3502 39.293 42.5806C39.4644 42.8147 39.6284 43.0599 39.7476 43.3349Z" fill="white"/>
<path d="M57.9107 48.8715C57.676 48.682 57.4859 48.4591 57.3071 48.2287C57.132 47.9946 56.9718 47.7531 56.8525 47.4744C57.0873 47.6639 57.2773 47.8868 57.4561 48.1172C57.6275 48.3513 57.7915 48.5966 57.9107 48.8715Z" fill="white"/>
<path d="M48.8091 33.0976C48.5744 32.9081 48.3844 32.6852 48.2055 32.4548C48.0304 32.2207 47.8702 31.9791 47.751 31.7004C47.9857 31.89 48.1757 32.1129 48.3546 32.3433C48.526 32.5774 48.6899 32.8226 48.8091 33.0976Z" fill="white"/>
<path d="M48.9693 52.0227C48.7345 51.8332 48.5445 51.6102 48.3657 51.3798C48.1906 51.1457 48.0304 50.9042 47.9111 50.6255C48.1459 50.815 48.3359 51.038 48.5147 51.2683C48.6861 51.5024 48.85 51.7477 48.9693 52.0227Z" fill="white"/>
<path d="M50.5152 40.8564C50.2804 40.6669 50.0904 40.4439 49.9116 40.2136C49.7365 39.9795 49.5763 39.7379 49.457 39.4592C49.6918 39.6487 49.8818 39.8717 50.0606 40.1021C50.232 40.3362 50.3959 40.5814 50.5152 40.8564Z" fill="white"/>
<path d="M58.1648 31.5889C56.7639 31.3287 55.4412 28.4341 55.2736 26.4869C55.2624 26.3532 55.9293 25.2941 56.6782 23.9676C57.129 23.1612 57.6134 22.2508 57.9934 21.3924C58.0717 21.2141 58.53 21.8049 58.53 21.8049L59.5285 22.5667L62.8259 25.0898C62.8259 25.0898 61.492 26.6616 60.8363 28.1665C60.7841 28.2929 60.7431 28.4155 60.7171 28.5381C60.7133 28.5567 60.7096 28.5753 60.6984 28.6013C60.5121 29.3222 59.5099 31.8453 58.1574 31.5926L58.1648 31.5889Z" fill="#EB9481"/>
<path d="M60.7248 28.5381C60.7248 28.5381 60.7174 28.5753 60.7062 28.6013C60.5273 28.5493 60.3373 28.4787 60.1361 28.3858C56.5258 26.6988 58.1167 21.8718 58.1167 21.8718L59.5288 22.5704L62.8262 25.0935C62.8262 25.0935 61.4923 26.6653 60.8366 28.1703C60.7844 28.2966 60.7434 28.4192 60.7174 28.5419L60.7248 28.5381Z" fill="#263238"/>
<path d="M66.6191 14.8079C66.6191 14.8079 68.2697 15.852 68.2809 17.71C68.292 19.5679 67.5506 21.385 67.3792 21.4482C67.2078 21.5113 66.6229 14.8079 66.6229 14.8079H66.6191Z" fill="#263238"/>
<path d="M58.4293 15.7704C57.4382 17.7249 57.4866 23.871 58.7273 25.454C60.5232 27.7504 63.9808 28.5419 66.071 26.2715C68.0941 24.0717 67.8892 16.0602 66.4548 14.5664C64.3459 12.3666 59.8973 12.8868 58.433 15.7704H58.4293Z" fill="#EB9481"/>
<path d="M63.6913 20.6978C63.6913 20.6978 63.6578 20.72 63.6615 20.7349C63.6839 21.1548 63.6392 21.6379 63.2628 21.7865C63.2517 21.7902 63.2517 21.8125 63.2666 21.8088C63.7286 21.7345 63.7807 21.0916 63.6913 20.6978Z" fill="#263238"/>
<path d="M63.3072 20.2666C62.6291 20.2295 62.6105 21.5858 63.2364 21.6155C63.8549 21.6489 63.8735 20.2963 63.3072 20.2666Z" fill="#263238"/>
<path d="M65.9894 20.6826C65.9894 20.6826 66.023 20.7012 66.023 20.7198C66.0044 21.1397 66.0491 21.6227 66.4291 21.7677C66.4403 21.7714 66.4403 21.7937 66.4254 21.79C65.9634 21.7194 65.9038 21.0765 65.9932 20.6826H65.9894Z" fill="#263238"/>
<path d="M66.3731 20.248C67.0512 20.2071 67.081 21.5597 66.455 21.5968C65.8365 21.634 65.8067 20.2814 66.3731 20.248Z" fill="#263238"/>
<path d="M62.882 19.2372C63.0683 19.1926 63.2323 19.122 63.4111 19.0626C63.6123 18.992 63.78 18.9585 63.9141 18.7801C63.9849 18.6835 63.9588 18.5126 63.8731 18.4346C63.6719 18.2525 63.4037 18.2748 63.1578 18.3491C62.8895 18.4309 62.7032 18.5609 62.5467 18.7913C62.394 19.0142 62.6361 19.2967 62.8783 19.2409L62.882 19.2372Z" fill="#263238"/>
<path d="M66.8426 19.8391C66.6563 19.8056 66.4886 19.7425 66.3061 19.6904C66.1011 19.631 65.9297 19.605 65.7882 19.434C65.7099 19.3411 65.7285 19.1702 65.8105 19.0847C66.0005 18.8915 66.2688 18.9027 66.5221 18.9621C66.7941 19.029 66.9842 19.1479 67.1555 19.3709C67.3195 19.5864 67.0959 19.8799 66.8463 19.8354L66.8426 19.8391Z" fill="#263238"/>
<path d="M62.7327 24.6662C62.8333 24.7665 62.9301 24.904 63.0829 24.9189C63.2282 24.9338 63.3996 24.8706 63.5374 24.8223C63.5523 24.8186 63.5635 24.8334 63.5561 24.8446C63.4443 25.0044 63.2133 25.101 63.0195 25.0638C62.8295 25.0267 62.7401 24.8632 62.6954 24.6885C62.688 24.6625 62.7215 24.6551 62.7364 24.6699L62.7327 24.6662Z" fill="#263238"/>
<path d="M65.1739 22.8751C65.1739 22.8751 65.1925 23.5031 65.159 23.7929C65.159 23.8189 64.3319 23.6591 63.4451 23.8524C63.311 23.8821 63.3259 23.7743 63.4786 23.7037C63.7879 23.5625 64.1754 23.4288 64.9354 23.5105C64.9652 23.4325 64.8907 22.5444 64.9354 22.5481C65.0957 22.5518 65.4012 22.693 65.5837 22.771C65.5837 21.463 65.3751 20.1662 65.3937 18.8656C65.3937 18.821 65.4645 18.8136 65.472 18.8545C65.7887 20.1996 65.8185 21.7046 65.8557 23.0535C65.8632 23.2207 65.2857 22.9383 65.1739 22.8751Z" fill="#263238"/>
<path d="M64.3348 23.57C64.3348 23.57 64.0404 24.3058 63.5523 24.5027C62.9897 24.7294 62.796 24.2203 63.3698 23.7707C63.6716 23.5366 64.3348 23.57 64.3348 23.57Z" fill="#263238"/>
<path d="M63.7497 24.3874C63.6864 24.4357 63.6231 24.4766 63.5523 24.5026C63.0344 24.7107 62.8295 24.2983 63.2468 23.8821C63.5299 23.9044 63.8392 24.0084 63.7497 24.3874Z" fill="#FF99BA"/>
<path d="M58.1462 21.0321C58.8281 21.2402 59.6105 19.1964 59.8341 18.4124C60.0278 17.7212 60.2551 15.5251 60.2886 15.3728C60.3221 15.2241 63.2581 17.3162 64.9757 16.8145C66.6934 16.3129 67.8409 14.7782 67.8633 14.061C67.8856 13.3439 65.7544 11.5231 63.9101 11.4302C62.0658 11.3373 59.5695 13.6746 59.5695 13.6746C59.5695 13.6746 60.419 12.6639 60.3892 12.5821C60.3594 12.5004 59.1671 12.976 58.9473 13.8195C58.9473 13.8195 59.182 12.7568 59.0926 12.7382C59.0032 12.7196 58.0755 13.63 58.2841 14.3174C58.2841 14.3174 57.2111 15.2427 57.1142 16.2571C57.0136 17.2716 57.3452 20.7831 58.1462 21.0283V21.0321Z" fill="#263238"/>
<path d="M66.1945 16.4579C65.6729 16.6957 65.1475 16.9595 64.5738 17.0375C63.9515 17.1193 63.3032 16.9632 62.722 16.7403C62.1296 16.5136 61.5894 16.1829 61.0975 15.7816C60.6691 15.4286 60.2853 15.0049 59.827 14.6891C59.7115 14.6111 59.5811 14.7746 59.6482 14.8823C60.3449 15.9228 61.5782 16.796 62.763 17.1713C64.0112 17.5652 65.1885 17.2902 66.1982 16.4727C66.2057 16.469 66.1982 16.4541 66.1908 16.4579H66.1945Z" fill="#263238"/>
<path d="M58.8578 20.8499C58.8578 20.8499 57.7996 18.7095 56.8458 19.0551C55.892 19.4007 56.4807 22.3622 57.4531 22.901C58.4256 23.4436 58.9472 22.5555 58.9472 22.5555L58.8578 20.8499Z" fill="#EB9481"/>
<path d="M57.0358 19.8985C57.0358 19.8985 57.0134 19.9171 57.0246 19.9245C57.7027 20.3295 57.9822 21.0579 58.1424 21.7899C57.9673 21.4889 57.699 21.2994 57.3003 21.5C57.278 21.5112 57.2929 21.5446 57.3152 21.5409C57.6208 21.5223 57.8294 21.6078 57.9896 21.8753C58.1051 22.0649 58.1685 22.2915 58.243 22.4996C58.2653 22.5702 58.3883 22.5516 58.3771 22.4736C58.3771 22.4662 58.3771 22.4625 58.3771 22.455C58.5373 21.5372 58.0194 20.14 57.0432 19.8948L57.0358 19.8985Z" fill="#263238"/>
<path d="M51.871 30.4037C51.1407 34.6138 55.7012 48.7974 58.6334 51.4468C62.9964 55.3857 71.0629 57.9756 73.9877 58.8191C75.2619 59.187 78.7866 50.2466 77.4974 49.6557C74.7366 48.3961 66.1597 45.728 65.3512 45.0406C64.5426 44.3569 59.6133 37.2818 57.4225 33.2055C54.4828 27.732 52.2361 28.2745 51.8673 30.4037H51.871Z" fill="#EB9481"/>
<path d="M75.3255 48.8716C75.3255 48.8716 79.1296 49.8378 81.5886 50.5884C82.9597 51.0046 85.2474 51.9335 86.1155 52.699C87.4121 53.8472 92.0993 59.4657 90.758 60.6287C89.5433 61.6803 86.1304 56.3406 86.1304 56.3406C86.1304 56.3406 90.05 61.4239 88.3548 62.4235C86.6595 63.4231 83.608 56.8794 83.608 56.8794C83.608 56.8794 87.5202 62.1931 85.6051 62.9474C84.1595 63.516 81.0596 57.7452 81.0596 57.7452C81.0596 57.7452 84.3905 62.3343 82.9299 62.9846C81.3166 63.7018 78.1199 58.5553 78.1199 58.5553C74.1257 59.5846 71.8045 58.4438 70.2471 57.4368C69.8708 57.1915 75.3292 48.8679 75.3292 48.8679L75.3255 48.8716Z" fill="#EB9481"/>
<path d="M84.8867 54.4976C85.3673 55.0773 85.8592 55.6644 86.2914 56.285C86.7198 56.9055 87.1259 57.5446 87.4948 58.2024C88.4002 59.8188 88.7132 60.9707 88.6871 60.9001C88.0462 59.2651 86.5447 57.017 86.1162 56.3964C85.6878 55.7759 85.2928 55.133 84.8643 54.5125C84.8532 54.4976 84.8755 54.4827 84.8904 54.4976H84.8867Z" fill="#263238"/>
<path d="M82.6095 55.9988C83.4366 56.6528 85.1692 59.0867 85.8398 60.7142C85.8696 60.7811 85.8324 60.7774 85.7914 60.7142C85.266 59.9079 83.1535 56.7865 82.5909 56.0099C82.5834 55.9988 82.5983 55.9876 82.6095 55.9988Z" fill="#263238"/>
<path d="M80.4228 56.939C81.3803 57.8829 82.1814 59.1723 82.8148 60.6624C82.8446 60.7293 82.7887 60.7181 82.7515 60.6549C81.9802 59.4027 81.3841 58.4143 80.3855 56.9688C80.3706 56.9465 80.4042 56.913 80.4265 56.9353L80.4228 56.939Z" fill="#263238"/>
<path d="M56.0182 30.7157C52.6165 25.9185 50.5822 27.6947 51.264 32.9044C51.9011 37.7759 53.615 43.5801 53.615 43.5801L62.1994 39.4332C62.1994 39.4332 58.1941 33.7887 56.0182 30.7157Z" fill="#14B8A6"/>
<path d="M58.097 32.5996C58.22 32.8746 58.2833 33.1607 58.3392 33.4468C58.3877 33.733 58.4212 34.0265 58.3988 34.3238C58.2759 34.0488 58.2088 33.7664 58.1567 33.4766C58.112 33.1904 58.0784 32.8969 58.097 32.5996Z" fill="white"/>
<path d="M53.0186 35.5204C53.2943 35.3978 53.5774 35.3347 53.868 35.2789C54.1549 35.2306 54.4493 35.1972 54.7474 35.2195C54.4716 35.3421 54.1885 35.409 53.8979 35.461C53.611 35.5056 53.3166 35.539 53.0186 35.5204Z" fill="white"/>
<path d="M53.2382 28.0552C53.1302 28.3339 52.9737 28.5828 52.8098 28.8244C52.6384 29.0622 52.4558 29.2889 52.2285 29.4858C52.3366 29.2071 52.4931 28.9581 52.657 28.7166C52.8284 28.4788 53.0109 28.2521 53.2382 28.0552Z" fill="white"/>
<path d="M60.4814 37.761C60.3733 38.0397 60.2168 38.2886 60.0529 38.5302C59.8815 38.768 59.699 38.9947 59.4717 39.1916C59.5797 38.9129 59.7362 38.6639 59.9002 38.4224C60.0715 38.1846 60.2541 37.9579 60.4814 37.761Z" fill="white"/>
<path d="M54.5419 40.6706C54.2624 40.5628 54.0128 40.4068 53.7706 40.2433C53.5322 40.0723 53.3049 39.8902 53.1074 39.6636C53.3869 39.7713 53.6365 39.9274 53.8787 40.0909C54.1171 40.2618 54.3444 40.4439 54.5419 40.6706Z" fill="white"/>
<path d="M57.1583 32.1575C57.6166 32.7855 58.0898 33.3986 58.5592 34.0154C58.44 33.7033 58.3357 33.3911 58.2426 33.0679C58.2388 33.053 58.2612 33.0456 58.2649 33.0604C58.3618 33.3057 58.4661 33.5509 58.5592 33.7962C58.604 33.9151 58.6487 34.034 58.6934 34.1529C58.7046 34.1789 58.712 34.2049 58.7232 34.2309C59.092 34.7103 59.4572 35.1934 59.8074 35.6839C60.2284 36.2673 60.6345 36.8655 61.0444 37.4601C61.4654 38.0732 61.8678 38.7941 62.3112 39.3923C62.3484 39.4443 61.5511 39.7639 61.4766 39.8085C61.4021 39.8494 61.3499 39.7788 61.4282 39.7528C61.5027 39.7305 62.1361 39.344 62.1435 39.3366C61.7337 38.7383 61.2605 38.1847 60.832 37.5975C60.4073 37.0141 59.9788 36.4345 59.5652 35.8399C58.7269 34.636 57.9557 33.3874 57.1248 32.1798C57.1136 32.1649 57.1397 32.15 57.1509 32.1649L57.1583 32.1575Z" fill="#263238"/>
<path d="M51.4762 36.3489C51.6066 36.6016 51.7482 36.8543 51.8637 37.1144C51.9121 37.2222 51.9568 37.3299 52.0052 37.4377C51.8078 36.5087 51.6178 35.5835 51.4277 34.6545C51.4277 34.6433 51.4426 34.6396 51.4464 34.6508C51.8413 36.1557 52.2362 37.6569 52.6014 39.1693C52.9516 40.6111 53.3689 42.0677 53.5701 43.5392C53.6893 43.4983 54.3563 43.2233 54.3749 43.2679C54.3935 43.3125 53.503 43.7324 53.4881 43.6953C53.0038 42.2609 52.702 40.6259 52.3704 39.1507C52.2772 38.7345 52.1915 38.3184 52.1021 37.8985C52.0052 37.6458 51.8897 37.4043 51.7742 37.1627C51.6513 36.9026 51.5544 36.6351 51.4501 36.3675C51.4426 36.3527 51.4687 36.3415 51.4762 36.3564V36.3489Z" fill="#263238"/>
<path d="M53.7526 42.1458C54.9449 41.4732 59.9263 38.9018 61.0441 38.4188C61.1223 38.3853 61.1633 38.4262 61.0851 38.4708C57.5604 40.5665 54.9858 41.5921 53.7824 42.1941C53.7526 42.209 53.7228 42.1681 53.7526 42.1495V42.1458Z" fill="#263238"/>
<path d="M190.28 139.837H76.7607L93.1731 46.9949H206.692L190.28 139.837Z" fill="#14B8A6"/>
<path d="M132.026 37.3782H94.8756L93.1729 46.9949H132.931L132.026 37.3782Z" fill="#14B8A6"/>
<g opacity="0.1">
<path d="M190.28 139.837H76.7607L93.1731 46.9949H206.692L190.28 139.837Z" fill="black"/>
<path d="M132.026 37.3782H94.8756L93.1729 46.9949H132.931L132.026 37.3782Z" fill="black"/>
</g>
<path d="M90.8672 41.3022C90.6138 40.2283 90.6101 39.1432 90.8672 38.0693C91.1243 39.1432 91.1206 40.2283 90.8672 41.3022Z" fill="#263238"/>
<path d="M87.5661 42.2534C86.806 41.4508 86.262 40.5107 85.9453 39.4517C86.7054 40.2543 87.2494 41.1944 87.5661 42.2534Z" fill="#263238"/>
<path d="M85.1814 44.7246C84.1195 44.4087 83.1769 43.8662 82.3721 43.1082C83.4339 43.424 84.3729 43.9665 85.1814 44.7246Z" fill="#263238"/>
<path d="M84.3577 48.0503C83.2809 48.303 82.193 48.3067 81.1162 48.0503C82.193 47.7939 83.2809 47.7976 84.3577 48.0503Z" fill="#263238"/>
<path d="M85.3113 51.3425C84.5065 52.1006 83.5638 52.6431 82.502 52.9589C83.3067 52.2009 84.2494 51.6584 85.3113 51.3425Z" fill="#263238"/>
<path d="M87.7897 53.7207C87.473 54.7797 86.929 55.7199 86.1689 56.5225C86.4856 55.4635 87.0296 54.5271 87.7897 53.7207Z" fill="#263238"/>
<path d="M91.1279 54.542C91.3813 55.6159 91.385 56.7009 91.1279 57.7748C90.8709 56.7009 90.8746 55.6159 91.1279 54.542Z" fill="#263238"/>
<path d="M94.4287 53.5906C95.1888 54.3932 95.7328 55.3333 96.0495 56.3924C95.2894 55.5897 94.7454 54.6496 94.4287 53.5906Z" fill="#263238"/>
<path d="M96.8096 51.1196C97.8714 51.4355 98.8141 51.978 99.6189 52.736C98.557 52.4202 97.6181 51.8777 96.8096 51.1196Z" fill="#263238"/>
<path d="M97.6328 47.79C98.7096 47.5373 99.7975 47.5336 100.874 47.79C99.7975 48.0464 98.7096 48.0427 97.6328 47.79Z" fill="#263238"/>
<path d="M96.6787 44.4978C97.4835 43.7397 98.4261 43.1972 99.488 42.8813C98.6832 43.6394 97.7406 44.1819 96.6787 44.4978Z" fill="#263238"/>
<path d="M94.2012 42.1233C94.5179 41.0643 95.0618 40.1242 95.8219 39.3215C95.5052 40.3806 94.9612 41.317 94.2012 42.1233Z" fill="#263238"/>
<path d="M190.112 139.837H76.3469L60.1953 50.3652H173.961L190.112 139.837Z" fill="#14B8A6"/>
<path d="M99.6187 105.06C102.23 105.06 104.347 102.948 104.347 100.344C104.347 97.7399 102.23 95.6287 99.6187 95.6287C97.0075 95.6287 94.8906 97.7399 94.8906 100.344C94.8906 102.948 97.0075 105.06 99.6187 105.06Z" fill="#263238"/>
<path d="M136.997 105.06C139.608 105.06 141.725 102.948 141.725 100.344C141.725 97.7399 139.608 95.6287 136.997 95.6287C134.385 95.6287 132.269 97.7399 132.269 100.344C132.269 102.948 134.385 105.06 136.997 105.06Z" fill="#263238"/>
<path d="M125.1 105.81L124.839 105.316C124.817 105.272 122.372 100.768 117.458 100.768C112.976 100.768 111.884 105.008 111.839 105.19L111.705 105.729L110.621 105.468L110.752 104.926C110.763 104.874 112.082 99.6531 117.458 99.6531C122.834 99.6531 125.718 104.588 125.83 104.8L126.091 105.294L125.1 105.81Z" fill="#263238"/>
<path d="M182.563 99.8018C182.806 99.7498 183.048 99.694 183.29 99.6309" stroke="#263238" stroke-miterlimit="10"/>
<path d="M184.717 99.2108C190.417 97.2896 195.19 92.8194 195.637 87.5949C196.628 76.0756 182.56 69.714 184.013 56.3999C185.399 43.7027 198.752 42.796 204.106 44.5499C210.019 46.4896 207.992 52.1564 202.638 51.4243C193.357 50.1572 187.522 40.0946 191.93 28.6793C195.224 20.1514 203.432 16.9334 206.766 15.9524" stroke="#263238" stroke-miterlimit="10"/>
<path d="M207.493 15.7593C207.955 15.6403 208.216 15.592 208.216 15.592" stroke="#263238" stroke-miterlimit="10"/>
<path d="M214.125 13.537C213.175 10.6014 206.812 11.6568 208.052 15.4916C209.293 19.3301 215.076 16.4726 214.125 13.537Z" fill="#263238"/>
<path d="M204.591 12.3517C204.639 11.0623 206.435 10.0738 208.976 10.5309C211.517 10.9879 213.909 12.6935 213.909 12.6935C213.909 12.6935 211.398 14.2245 208.831 14.4957C206.264 14.767 204.546 13.6448 204.595 12.3517H204.591Z" fill="#EBEBEB"/>
<path d="M213.906 12.6937C212.587 12.7011 211.271 12.6602 209.953 12.6194C208.637 12.5636 207.318 12.5116 206.007 12.4038C207.326 12.3927 208.641 12.4373 209.96 12.4782C211.275 12.5339 212.594 12.5859 213.906 12.6937Z" fill="#263238"/>
<path d="M207.144 11.2109C207.524 11.3819 207.878 11.5974 208.231 11.8092C208.578 12.0359 208.928 12.2588 209.249 12.5264C208.869 12.3554 208.515 12.1399 208.161 11.9281C207.814 11.7014 207.464 11.4785 207.144 11.2109Z" fill="#263238"/>
<path d="M210.597 12.5747C210.262 12.8571 209.9 13.0949 209.539 13.3365C209.17 13.5631 208.801 13.7935 208.406 13.9793C208.742 13.6969 209.103 13.4591 209.464 13.2176C209.833 12.9909 210.202 12.7605 210.597 12.5747Z" fill="#263238"/>
<path d="M210.98 11.8464C211.178 11.9319 211.342 12.0582 211.506 12.1809C211.662 12.3146 211.819 12.4484 211.945 12.6231C211.748 12.5376 211.584 12.4113 211.42 12.2886C211.264 12.1549 211.107 12.0211 210.98 11.8464Z" fill="#263238"/>
<path d="M207.012 19.9986C207.806 21.0168 209.844 20.7715 211.636 18.921C213.428 17.0705 214.367 14.291 214.367 14.291C214.367 14.291 211.431 14.514 209.192 15.7922C206.953 17.0705 206.215 18.9805 207.012 20.0023V19.9986Z" fill="#EBEBEB"/>
<path d="M214.367 14.2876C213.29 15.0494 212.251 15.852 211.204 16.6546C210.168 17.4684 209.132 18.2785 208.126 19.1294C209.203 18.3677 210.242 17.565 211.289 16.7624C212.325 15.9486 213.361 15.1385 214.367 14.2876Z" fill="#263238"/>
<path d="M209.75 19.4341C209.959 19.0737 210.119 18.6909 210.283 18.3119C210.432 17.9255 210.585 17.5427 210.685 17.1377C210.477 17.4981 210.316 17.8809 210.152 18.2599C210.003 18.6463 209.851 19.0291 209.75 19.4341Z" fill="#263238"/>
<path d="M211.751 16.3166C211.315 16.2832 210.879 16.3017 210.447 16.3166C210.015 16.3463 209.579 16.3723 209.15 16.4541C209.586 16.4875 210.022 16.4689 210.454 16.4541C210.887 16.4244 211.323 16.3946 211.751 16.3166Z" fill="#263238"/>
<path d="M212.489 16.6805C212.601 16.4985 212.657 16.3015 212.72 16.1046C212.769 15.9039 212.817 15.7033 212.817 15.4915C212.705 15.6735 212.649 15.8705 212.586 16.0674C212.538 16.2681 212.489 16.4687 212.489 16.6805Z" fill="#263238"/>
<path d="M214.125 13.537C213.54 13.7266 212.91 13.4033 212.72 12.8199C212.53 12.2365 212.855 11.6085 213.439 11.419C214.024 11.2295 214.654 11.5528 214.844 12.1362C215.034 12.7196 214.71 13.3475 214.125 13.537Z" fill="#455A64"/>
<path d="M214.811 15.6552C214.226 15.8447 213.596 15.5214 213.406 14.938C213.216 14.3546 213.54 13.7267 214.125 13.5372C214.71 13.3476 215.34 13.6709 215.53 14.2543C215.72 14.8377 215.396 15.4657 214.811 15.6552Z" fill="#455A64"/>
<path d="M92.6577 14.7113C92.1249 19.7984 87.5533 23.492 82.4563 22.9606C80.3959 22.7451 78.5628 21.8718 77.1432 20.5713L72.4971 21.2513L74.822 17.2455C74.2594 15.8781 74.0209 14.3546 74.1849 12.7865C74.7177 7.69941 79.2893 4.00581 84.3863 4.53718C89.487 5.06855 93.1905 9.62796 92.6577 14.7113Z" fill="white"/>
<path d="M92.6581 14.7112C92.4644 16.4019 91.8459 18.0592 90.784 19.4044C90.5419 19.7574 90.2252 20.0509 89.942 20.3705C89.6178 20.6492 89.3198 20.9576 88.9621 21.1991C88.284 21.7194 87.5202 22.1281 86.7229 22.444C85.9292 22.7784 85.076 22.9382 84.2228 23.0385C83.7943 23.0608 83.3621 23.1017 82.9337 23.0645C82.5015 23.0534 82.073 23.0088 81.6482 22.9307C79.9493 22.6223 78.3397 21.8308 77.0543 20.6678L77.1623 20.7012L72.5199 21.4109L72.1846 21.463L72.356 21.1657L74.666 17.1525L74.6548 17.3123C73.5296 14.6703 73.783 11.5192 75.2286 9.05931C75.9477 7.82563 76.9537 6.76288 78.1385 5.9714C79.3233 5.1762 80.6944 4.67827 82.1028 4.48876C83.5112 4.30296 84.9568 4.4293 86.3018 4.87521C87.6431 5.32483 88.8764 6.08287 89.8824 7.06387C91.9316 9.00728 92.9637 11.9243 92.6619 14.7112H92.6581ZM92.6581 14.7112C92.9413 11.9205 91.8906 9.02215 89.8377 7.10475C88.8205 6.14604 87.5873 5.41773 86.2571 4.99783C84.9233 4.58165 83.5 4.48132 82.1251 4.68941C80.754 4.8975 79.4239 5.4103 78.2912 6.20178C77.1586 6.99699 76.2048 8.03372 75.5118 9.22281C74.8076 10.4119 74.4424 11.7756 74.3344 13.1431C74.2487 14.5142 74.4722 15.904 74.9864 17.1785L75.0199 17.2603L74.9752 17.3346L72.6354 21.3329L72.4677 21.0877L77.1176 20.4374L77.1809 20.4299L77.2257 20.4745C78.4552 21.6265 80.0089 22.4291 81.6706 22.7598C82.0842 22.8416 82.5052 22.8973 82.9299 22.9122C83.3547 22.9568 83.7757 22.927 84.2005 22.9122C85.0425 22.8267 85.8883 22.6855 86.6819 22.3659C87.4755 22.0687 88.2467 21.6785 88.9211 21.162C89.2788 20.9279 89.5769 20.6232 89.901 20.3445C90.1879 20.0286 90.5009 19.7388 90.7468 19.3895C91.8124 18.0555 92.442 16.4056 92.647 14.7149L92.6581 14.7112Z" fill="#263238"/>
<path d="M78.8838 18.0628C78.8838 17.5091 79.2676 17.1115 79.7929 17.1115C80.3481 17.1115 80.702 17.5091 80.702 18.0628C80.702 18.6165 80.3481 19.0141 79.7929 19.0141C79.2377 19.0141 78.8838 18.5979 78.8838 18.0628ZM79.2676 15.8667L79.0515 8.49438H80.5306L80.3145 15.8667H79.2676Z" fill="#14B8A6"/>
<path d="M82.4238 18.0628C82.4238 17.5091 82.8076 17.1115 83.3329 17.1115C83.8881 17.1115 84.242 17.5091 84.242 18.0628C84.242 18.6165 83.8881 19.0141 83.3329 19.0141C82.7778 19.0141 82.4238 18.5979 82.4238 18.0628ZM82.8076 15.8667L82.5915 8.49438H84.0707L83.8546 15.8667H82.8076Z" fill="#14B8A6"/>
<path d="M85.9668 18.0628C85.9668 17.5091 86.3506 17.1115 86.8759 17.1115C87.4311 17.1115 87.785 17.5091 87.785 18.0628C87.785 18.6165 87.4311 19.0141 86.8759 19.0141C86.3208 19.0141 85.9668 18.5979 85.9668 18.0628ZM86.3506 15.8667L86.1345 8.49438H87.6136L87.3975 15.8667H86.3506Z" fill="#14B8A6"/>
</g>
<defs>
<clipPath id="clip0_61_3045">
<rect width="228" height="149" fill="white"/>
</clipPath>
</defs>
</svg>
