<svg width="33" height="32" viewBox="0 0 33 32" fill="none" xmlns="http://www.w3.org/2000/svg">
<rect x="0.5" width="32" height="32" rx="16" fill="#F1F5F9"/>
<path d="M9.62104 21.8037C11.6527 20.6554 13.9998 20 16.5 20C19.0002 20 21.3473 20.6554 23.379 21.8037M19.5 14C19.5 15.6569 18.1569 17 16.5 17C14.8431 17 13.5 15.6569 13.5 14C13.5 12.3431 14.8431 11 16.5 11C18.1569 11 19.5 12.3431 19.5 14ZM25.5 16C25.5 20.9706 21.4706 25 16.5 25C11.5294 25 7.5 20.9706 7.5 16C7.5 11.0294 11.5294 7 16.5 7C21.4706 7 25.5 11.0294 25.5 16Z" stroke="#14B8A6" stroke-width="1.5" stroke-linecap="round" stroke-linejoin="round"/>
</svg>
