<svg width="20" height="20" viewBox="0 0 20 20" fill="none" xmlns="http://www.w3.org/2000/svg">
<path d="M9.08337 12.7499H10.9167V14.5833H9.08337V12.7499ZM9.08337 5.41658H10.9167V10.9166H9.08337V5.41658ZM9.99087 0.833252C4.93087 0.833252 0.833374 4.93992 0.833374 9.99992C0.833374 15.0599 4.93087 19.1666 9.99087 19.1666C15.06 19.1666 19.1667 15.0599 19.1667 9.99992C19.1667 4.93992 15.06 0.833252 9.99087 0.833252ZM10 17.3333C5.94837 17.3333 2.66671 14.0516 2.66671 9.99992C2.66671 5.94825 5.94837 2.66659 10 2.66659C14.0517 2.66659 17.3334 5.94825 17.3334 9.99992C17.3334 14.0516 14.0517 17.3333 10 17.3333Z" fill="white"/>
</svg>
