<svg width="20" height="20" viewBox="0 0 20 20" fill="none" xmlns="http://www.w3.org/2000/svg">
<path d="M10 0.833252C4.94004 0.833252 0.833374 4.93992 0.833374 9.99992C0.833374 15.0599 4.94004 19.1666 10 19.1666C15.06 19.1666 19.1667 15.0599 19.1667 9.99992C19.1667 4.93992 15.06 0.833252 10 0.833252ZM10 17.3333C5.95754 17.3333 2.66671 14.0424 2.66671 9.99992C2.66671 5.95742 5.95754 2.66659 10 2.66659C14.0425 2.66659 17.3334 5.95742 17.3334 9.99992C17.3334 14.0424 14.0425 17.3333 10 17.3333ZM14.2075 5.94825L8.16671 11.9891L5.79254 9.62409L4.50004 10.9166L8.16671 14.5833L15.5 7.24992L14.2075 5.94825Z" fill="white"/>
</svg>
