<svg width="38" height="38" viewBox="0 0 38 38" fill="none" xmlns="http://www.w3.org/2000/svg">
<rect width="38" height="38" rx="19" fill="#CCFBF1"/>
<path fill-rule="evenodd" clip-rule="evenodd" d="M12.8231 13.7084L11.6615 15.204C11.2788 15.6967 11.63 16.4141 12.2538 16.4141H16.3753C16.6113 16.4141 16.8335 16.303 16.9752 16.1142L18.9983 13.4185L21.0952 16.1236C21.2372 16.3068 21.4561 16.4141 21.6879 16.4141H25.7462C26.3703 16.4141 26.7214 15.6964 26.3384 15.2038L25.1757 13.7081C25.0336 13.5254 24.8151 13.4185 24.5836 13.4185H18.9983H13.4154C13.1838 13.4185 12.9651 13.5255 12.8231 13.7084ZM16.0933 17.7397H13.0001V22.1714C13.0001 23.5025 14.0074 24.5815 15.2501 24.5815H22.7501C23.9927 24.5815 25.0001 23.5025 25.0001 22.1714V17.7397H21.9171C21.0375 17.7397 20.2163 17.2677 19.7299 16.4825L19.0052 15.3128L18.2806 16.4825C17.7942 17.2677 16.973 17.7397 16.0933 17.7397Z" fill="#14B8A6"/>
</svg>
