<svg width="33" height="32" viewBox="0 0 33 32" fill="none" xmlns="http://www.w3.org/2000/svg">
<rect x="0.5" width="32" height="32" rx="16" fill="#F1F5F9"/>
<g clip-path="url(#clip0_57_2052)">
<path d="M15.549 6.92664C15.8483 6.00537 17.1517 6.00538 17.451 6.92664L18.9699 11.6005C19.1038 12.0125 19.4877 12.2915 19.9209 12.2915L24.8354 12.2917C25.8041 12.2917 26.2068 13.5313 25.4232 14.1007L21.4474 16.9895C21.0969 17.2441 20.9503 17.6955 21.0841 18.1075L22.6026 22.7815C22.9019 23.7028 21.8475 24.4689 21.0638 23.8995L17.0878 21.011C16.7373 20.7564 16.2627 20.7564 15.9122 21.011L11.9362 23.8995C11.1525 24.4689 10.0981 23.7028 10.3974 22.7815L11.9159 18.1075C12.0497 17.6955 11.9031 17.2441 11.5526 16.9895L7.57683 14.1007C6.79317 13.5313 7.19592 12.2917 8.16461 12.2917L13.0791 12.2915C13.5123 12.2915 13.8962 12.0125 14.0301 11.6005L15.549 6.92664Z" stroke="#14B8A6" stroke-width="1.5"/>
</g>
<defs>
<clipPath id="clip0_57_2052">
<rect width="24" height="24" fill="white" transform="translate(4.5 4)"/>
</clipPath>
</defs>
</svg>
