<svg width="146" height="47" viewBox="0 0 146 47" fill="none" xmlns="http://www.w3.org/2000/svg">
<path d="M68.28 10.088H63.48V7.42401H76.8V10.088H72.024V23H68.28V10.088Z" fill="#14B8A6"/>
<path d="M84.3774 23.24C83.6574 23.24 83.0655 23.216 82.6014 23.168C82.1374 23.12 81.6414 23.024 81.1134 22.88C80.5374 22.72 80.0734 22.496 79.7214 22.208C79.3694 21.904 79.0734 21.48 78.8334 20.936C78.5934 20.408 78.4734 19.768 78.4734 19.016V15.584C78.4734 14.816 78.5934 14.144 78.8334 13.568C79.0734 12.992 79.3854 12.544 79.7694 12.224C80.1054 11.952 80.5454 11.728 81.0894 11.552C81.6494 11.36 82.1934 11.24 82.7214 11.192C83.3294 11.16 83.8814 11.144 84.3774 11.144C85.1134 11.144 85.6974 11.168 86.1294 11.216C86.5774 11.248 87.0654 11.344 87.5934 11.504C88.1694 11.68 88.6334 11.92 88.9855 12.224C89.3535 12.528 89.6655 12.96 89.9214 13.52C90.1614 14.096 90.2815 14.784 90.2815 15.584V19.016C90.2815 19.736 90.1614 20.368 89.9214 20.912C89.6974 21.456 89.4014 21.88 89.0334 22.184C88.7134 22.456 88.2734 22.68 87.7134 22.856C87.1694 23.016 86.6334 23.12 86.1054 23.168C85.6255 23.216 85.0494 23.24 84.3774 23.24ZM84.3774 21.056C85.0334 21.056 85.5294 21.008 85.8654 20.912C86.2015 20.8 86.4334 20.632 86.5614 20.408C86.7054 20.184 86.7775 19.856 86.7775 19.424V15.032C86.7775 14.392 86.6094 13.944 86.2734 13.688C85.9374 13.432 85.3054 13.304 84.3774 13.304C83.4494 13.304 82.8174 13.432 82.4814 13.688C82.1454 13.944 81.9774 14.392 81.9774 15.032V19.424C81.9774 19.856 82.0414 20.184 82.1694 20.408C82.3134 20.632 82.5534 20.8 82.8895 20.912C83.2255 21.008 83.7214 21.056 84.3774 21.056Z" fill="#14B8A6"/>
<path d="M93.0126 11.384H96.3246V12.536C96.5326 12.024 96.9406 11.664 97.5486 11.456C98.1566 11.248 99.0606 11.144 100.261 11.144C101.269 11.144 102.077 11.224 102.685 11.384C103.309 11.544 103.781 11.8 104.101 12.152C104.405 12.504 104.613 12.896 104.725 13.328C104.837 13.744 104.893 14.32 104.893 15.056V18.872C104.893 20.024 104.725 20.912 104.389 21.536C104.053 22.16 103.533 22.6 102.829 22.856C102.141 23.112 101.197 23.24 99.9966 23.24C98.8446 23.24 98.0126 23.144 97.5006 22.952C96.9886 22.76 96.6606 22.384 96.5166 21.824V27.992H93.0126V11.384ZM98.9166 21.056C99.6046 21.056 100.125 21.008 100.477 20.912C100.829 20.816 101.069 20.648 101.197 20.408C101.325 20.168 101.389 19.808 101.389 19.328V15.032C101.389 14.504 101.333 14.128 101.221 13.904C101.109 13.664 100.885 13.504 100.549 13.424C100.213 13.344 99.6606 13.304 98.8926 13.304C98.2366 13.304 97.7326 13.36 97.3806 13.472C97.0446 13.584 96.8126 13.76 96.6846 14C96.5726 14.24 96.5166 14.584 96.5166 15.032V19.328C96.5166 19.808 96.5726 20.168 96.6846 20.408C96.8126 20.648 97.0446 20.816 97.3806 20.912C97.7166 21.008 98.2286 21.056 98.9166 21.056Z" fill="#14B8A6"/>
<path d="M111.382 10.088H106.582V7.42401H119.902V10.088H115.126V23H111.382V10.088Z" fill="#14B8A6"/>
<path d="M127.743 23.24C123.631 23.24 121.575 21.984 121.575 19.472V15.296C121.575 13.84 122.039 12.784 122.967 12.128C123.911 11.472 125.359 11.144 127.311 11.144C129.151 11.144 130.495 11.464 131.343 12.104C132.207 12.728 132.639 13.792 132.639 15.296V18.128H125.103V19.184C125.103 19.856 125.343 20.336 125.823 20.624C126.303 20.912 127.167 21.056 128.415 21.056C129.567 21.056 130.863 20.888 132.303 20.552V22.784C130.879 23.088 129.359 23.24 127.743 23.24ZM129.303 16.136V14.456C129.303 14.072 129.143 13.784 128.823 13.592C128.519 13.4 127.999 13.304 127.263 13.304C126.415 13.304 125.847 13.4 125.559 13.592C125.255 13.8 125.103 14.088 125.103 14.456V16.136H129.303Z" fill="#14B8A6"/>
<path d="M134.741 21.128L140.597 13.664H134.981V11.384H145.061V13.256L139.205 20.72H145.205V23H134.741V21.128Z" fill="#14B8A6"/>
<path d="M67.512 43.16C65.144 43.16 63.96 42.3707 63.96 40.792V37.736C63.96 36.7973 64.2267 36.1253 64.76 35.72C65.304 35.304 66.1787 35.096 67.384 35.096C68.5254 35.096 69.3467 35.2933 69.848 35.688C70.36 36.0827 70.616 36.7653 70.616 37.736V39.448H65.416V40.616C65.416 41.1493 65.6027 41.5333 65.976 41.768C66.3494 42.0027 66.9254 42.12 67.704 42.12C68.44 42.12 69.3094 41.992 70.312 41.736V42.84C69.3307 43.0533 68.3974 43.16 67.512 43.16ZM69.176 38.504V37.288C69.176 36.8187 69.032 36.4987 68.744 36.328C68.4667 36.1467 67.9867 36.056 67.304 36.056C66.6427 36.056 66.1627 36.1467 65.864 36.328C65.5654 36.4987 65.416 36.8187 65.416 37.288V38.504H69.176Z" fill="#14B8A6"/>
<path d="M74.6025 39.016L71.8825 35.256H73.4665L75.3865 38.088L77.3225 35.256H78.9065L76.1865 39.016L79.0665 43H77.4825L75.3865 39.944L73.3065 43H71.7225L74.6025 39.016Z" fill="#14B8A6"/>
<path d="M80.4668 31.8H81.9068V36.2C82.0561 35.464 82.9041 35.096 84.4508 35.096C85.4428 35.096 86.1361 35.2773 86.5308 35.64C86.9361 35.992 87.1388 36.552 87.1388 37.32V43H85.6988V37.416C85.6988 37.2133 85.6828 37.048 85.6508 36.92C85.6188 36.792 85.5548 36.664 85.4588 36.536C85.2454 36.2693 84.7708 36.136 84.0348 36.136C83.4481 36.136 83.0001 36.1787 82.6908 36.264C82.3921 36.3387 82.1841 36.4667 82.0668 36.648C81.9601 36.8293 81.9068 37.0853 81.9068 37.416V43H80.4668V31.8Z" fill="#14B8A6"/>
<path d="M89.6386 32.456H91.0786V33.96H89.6386V32.456ZM89.6386 35.256H91.0786V43H89.6386V35.256Z" fill="#14B8A6"/>
<path d="M97.0321 43.16C96.4561 43.16 95.9921 43.128 95.6401 43.064C95.2988 43.0107 94.9575 42.904 94.6161 42.744C93.9228 42.4133 93.5761 41.656 93.5761 40.472V31.8H95.0161V34.12V35.032C95.0055 35.3093 95.0001 35.6187 95.0001 35.96C95.0535 35.7147 95.2775 35.5067 95.6721 35.336C96.0775 35.176 96.6641 35.096 97.4321 35.096C99.5655 35.096 100.632 35.8267 100.632 37.288V40.472C100.632 40.9307 100.563 41.3307 100.424 41.672C100.296 42.0133 100.125 42.28 99.9121 42.472C99.7201 42.6533 99.4535 42.7973 99.1121 42.904C98.7815 43.0107 98.4508 43.08 98.1201 43.112C97.8215 43.144 97.4588 43.16 97.0321 43.16ZM97.0641 42.216C97.6188 42.216 98.0401 42.1787 98.3281 42.104C98.6268 42.0187 98.8401 41.8693 98.9681 41.656C99.0961 41.4427 99.1601 41.1173 99.1601 40.68V37.64C99.1601 37.2027 99.0961 36.8773 98.9681 36.664C98.8401 36.44 98.6268 36.296 98.3281 36.232C98.0401 36.1573 97.6135 36.12 97.0481 36.12C96.5255 36.12 96.1201 36.1627 95.8321 36.248C95.5441 36.3333 95.3361 36.488 95.2081 36.712C95.0801 36.9253 95.0161 37.2347 95.0161 37.64V40.68C95.0161 41.1173 95.0748 41.4427 95.1921 41.656C95.3201 41.8693 95.5281 42.0187 95.8161 42.104C96.1041 42.1787 96.5201 42.216 97.0641 42.216Z" fill="#14B8A6"/>
<path d="M102.842 32.456H104.282V33.96H102.842V32.456ZM102.842 35.256H104.282V43H102.842V35.256Z" fill="#14B8A6"/>
<path d="M110.027 43.16C109.366 43.16 108.849 43.0907 108.475 42.952C108.102 42.8027 107.83 42.5573 107.659 42.216C107.499 41.864 107.419 41.3733 107.419 40.744V36.2H105.691V35.256H107.419V32.856H108.875V35.256H111.643V36.2H108.875V40.824C108.875 41.208 108.918 41.496 109.003 41.688C109.099 41.88 109.259 42.0187 109.483 42.104C109.718 42.1787 110.054 42.216 110.491 42.216C110.63 42.216 111.014 42.1733 111.643 42.088V43.032C111.099 43.1173 110.561 43.16 110.027 43.16Z" fill="#14B8A6"/>
<path d="M113.217 32.456H114.657V33.96H113.217V32.456ZM113.217 35.256H114.657V43H113.217V35.256Z" fill="#14B8A6"/>
<path d="M120.434 43.16C119.752 43.16 119.24 43.1333 118.898 43.08C118.557 43.0373 118.216 42.936 117.874 42.776C117.522 42.616 117.266 42.36 117.106 42.008C116.946 41.6453 116.866 41.16 116.866 40.552V37.864C116.866 37.384 116.925 36.9627 117.042 36.6C117.16 36.2373 117.314 35.9547 117.506 35.752C117.666 35.5707 117.906 35.432 118.226 35.336C118.557 35.2293 118.893 35.16 119.234 35.128C119.618 35.1067 120.018 35.096 120.434 35.096C120.989 35.096 121.405 35.112 121.682 35.144C121.97 35.1653 122.274 35.2187 122.594 35.304C122.925 35.4 123.181 35.544 123.362 35.736C123.544 35.928 123.698 36.2053 123.826 36.568C123.944 36.9413 124.002 37.3733 124.002 37.864V40.552C124.002 41.4587 123.794 42.12 123.378 42.536C123.208 42.7067 122.962 42.84 122.642 42.936C122.322 43.032 121.992 43.096 121.65 43.128C121.245 43.1493 120.84 43.16 120.434 43.16ZM120.434 42.216C120.882 42.216 121.208 42.2053 121.41 42.184C121.613 42.1627 121.81 42.104 122.002 42.008C122.194 41.9227 122.328 41.784 122.402 41.592C122.488 41.3893 122.53 41.112 122.53 40.76V37.624C122.53 37.144 122.472 36.7973 122.354 36.584C122.237 36.36 122.034 36.216 121.746 36.152C121.469 36.0773 121.032 36.04 120.434 36.04C119.837 36.04 119.394 36.0773 119.106 36.152C118.829 36.216 118.632 36.36 118.514 36.584C118.397 36.7973 118.338 37.144 118.338 37.624V40.76C118.338 41.112 118.376 41.3893 118.45 41.592C118.536 41.784 118.674 41.9227 118.866 42.008C119.058 42.104 119.256 42.1627 119.458 42.184C119.661 42.2053 119.986 42.216 120.434 42.216Z" fill="#14B8A6"/>
<path d="M126.248 35.256H127.688V36.2C127.837 35.464 128.685 35.096 130.232 35.096C131.224 35.096 131.917 35.2773 132.312 35.64C132.717 35.992 132.92 36.552 132.92 37.32V43H131.48V37.4C131.48 37.1973 131.464 37.032 131.432 36.904C131.4 36.776 131.336 36.648 131.24 36.52C131.027 36.2533 130.552 36.12 129.816 36.12C129.251 36.12 128.813 36.1627 128.504 36.248C128.205 36.3227 127.992 36.4507 127.864 36.632C127.747 36.8133 127.688 37.0693 127.688 37.4V43H126.248V35.256Z" fill="#14B8A6"/>
<rect x="19.2" y="8.59998" width="8.6" height="8.6" fill="#14B8A6"/>
<rect x="19.2" width="8.6" height="8.6" fill="#14B8A6"/>
<rect x="27.8" width="8.6" height="8.6" fill="#14B8A6"/>
<rect x="10.6" width="8.6" height="8.6" fill="#14B8A6"/>
<rect x="27.8" y="38.4" width="8.6" height="8.6" transform="rotate(-180 27.8 38.4)" fill="#14B8A6"/>
<rect x="27.8" y="47" width="8.6" height="8.6" transform="rotate(-180 27.8 47)" fill="#14B8A6"/>
<rect x="19.2" y="47" width="8.6" height="8.6" transform="rotate(-180 19.2 47)" fill="#14B8A6"/>
<rect x="36.4" y="47" width="8.6" height="8.6" transform="rotate(-180 36.4 47)" fill="#14B8A6"/>
<rect x="38.4" y="19.2" width="8.6" height="8.6" transform="rotate(90 38.4 19.2)" fill="#14B8A6"/>
<rect x="47" y="19.2" width="8.6" height="8.6" transform="rotate(90 47 19.2)" fill="#14B8A6"/>
<rect x="47" y="27.8" width="8.6" height="8.6" transform="rotate(90 47 27.8)" fill="#14B8A6"/>
<rect x="47" y="10.6" width="8.6" height="8.6" transform="rotate(90 47 10.6)" fill="#14B8A6"/>
<rect x="8.60001" y="27.8" width="8.6" height="8.6" transform="rotate(-90 8.60001 27.8)" fill="#14B8A6"/>
<rect y="27.8" width="8.6" height="8.6" transform="rotate(-90 0 27.8)" fill="#14B8A6"/>
<rect y="19.2" width="8.6" height="8.6" transform="rotate(-90 0 19.2)" fill="#14B8A6"/>
<rect y="36.4" width="8.6" height="8.6" transform="rotate(-90 0 36.4)" fill="#14B8A6"/>
</svg>
