<svg width="20" height="20" viewBox="0 0 20 20" fill="none" xmlns="http://www.w3.org/2000/svg">
<path fill-rule="evenodd" clip-rule="evenodd" d="M4 0C1.79086 0 0 1.79086 0 4V16C0 18.2091 1.79086 20 4 20H16C18.2091 20 20 18.2091 20 16V4C20 1.79086 18.2091 0 16 0H4ZM8.58397 5.37604C8.92862 5.14628 9.39427 5.23941 9.62404 5.58405C9.8538 5.9287 9.76067 6.39435 9.41603 6.62412L8.18949 7.44181C9.54498 7.6838 10.8379 8.15729 11.916 8.87604C13.5889 9.99128 14.75 11.7092 14.75 14.0001C14.75 14.4143 14.4142 14.7501 14 14.7501C13.5858 14.7501 13.25 14.4143 13.25 14.0001C13.25 12.291 12.4111 11.0089 11.084 10.1241C10.0877 9.45993 8.82078 9.0275 7.46577 8.84666L8.62404 10.5841C8.8538 10.9287 8.76067 11.3944 8.41603 11.6241C8.07138 11.8539 7.60573 11.7608 7.37596 11.4161L5.37596 8.41611C5.1462 8.07146 5.23933 7.60581 5.58397 7.37604L8.58397 5.37604Z" fill="#14B8A6"/>
</svg>
