<svg width="16" height="13" viewBox="0 0 16 13" fill="none" xmlns="http://www.w3.org/2000/svg">
    <path fill-rule="evenodd" clip-rule="evenodd" d="M2.96549 0.334412C2.65307 0.0219928 2.14654 0.0219928 1.83412 0.334412C1.5217 0.646832 1.5217 1.15336 1.83412 1.46578L13.0341 12.6658C13.3465 12.9782 13.8531 12.9782 14.1655 12.6658C14.4779 12.3534 14.4779 11.8468 14.1655 11.5344L12.987 10.3559C14.217 9.37402 15.151 8.03698 15.6337 6.50007C14.6143 3.2544 11.5821 0.900098 7.99998 0.900098C6.70112 0.900098 5.47456 1.20963 4.39004 1.75896L2.96549 0.334412ZM6.37431 3.74323L7.58541 4.95433C7.71764 4.91896 7.85662 4.9001 8.00001 4.9001C8.88366 4.9001 9.60001 5.61644 9.60001 6.5001C9.60001 6.64348 9.58115 6.78246 9.54577 6.91469L10.7569 8.1258C11.0384 7.64936 11.2 7.0936 11.2 6.5001C11.2 4.73279 9.76732 3.3001 8.00001 3.3001C7.40651 3.3001 6.85074 3.46167 6.37431 3.74323Z" fill="#94A3B8"/>
    <path d="M9.96307 11.8575L7.79953 9.69392C6.19191 9.59454 4.90556 8.3082 4.80618 6.70058L1.86774 3.76213C1.20031 4.55788 0.684899 5.48545 0.366211 6.50013C1.38563 9.7458 4.41786 12.1001 7.99996 12.1001C8.67729 12.1001 9.33495 12.0159 9.96307 11.8575Z" fill="#94A3B8"/>
</svg>