<svg width="13" height="14" viewBox="0 0 13 14" fill="none" xmlns="http://www.w3.org/2000/svg">
<g clip-path="url(#clip0_4_363)">
<path fill-rule="evenodd" clip-rule="evenodd" d="M2.7885 1.83381C2.7885 2.56096 2.23484 3.14942 1.36901 3.14942C0.536913 3.14942 -0.0167478 2.56096 0.000386763 1.83381C-0.0167478 1.07133 0.5369 0.5 1.3856 0.5C2.23483 0.5 2.7719 1.07133 2.7885 1.83381ZM0.0699986 12.6585V4.18874H2.70229V12.658L0.0699986 12.6585Z" fill="white"/>
<path fill-rule="evenodd" clip-rule="evenodd" d="M4.8118 6.89199C4.8118 5.83554 4.77699 4.9349 4.74219 4.19008H7.02858L7.15012 5.35042H7.20207C7.54851 4.81336 8.41434 4 9.81723 4C11.5489 4 12.8479 5.14319 12.8479 7.63627V12.6599H10.2156V7.9661C10.2156 6.87431 9.8349 6.13003 8.88233 6.13003C8.15464 6.13003 7.722 6.63229 7.54905 7.11688C7.47944 7.29036 7.44517 7.53239 7.44517 7.77548V12.6599H4.81286V6.89199H4.8118Z" fill="white"/>
</g>
<defs>
<clipPath id="clip0_4_363">
<rect width="13" height="13" fill="white" transform="translate(0 0.5)"/>
</clipPath>
</defs>
</svg>
