<svg width="20" height="20" viewBox="0 0 20 20" fill="none" xmlns="http://www.w3.org/2000/svg">
<path fill-rule="evenodd" clip-rule="evenodd" d="M7.60002 2.80002C4.94906 2.80002 2.80002 4.94906 2.80002 7.60002C2.80002 10.251 4.94906 12.4 7.60002 12.4C10.251 12.4 12.4 10.251 12.4 7.60002C12.4 4.94906 10.251 2.80002 7.60002 2.80002ZM0.400024 7.60002C0.400024 3.62357 3.62357 0.400024 7.60002 0.400024C11.5765 0.400024 14.8 3.62357 14.8 7.60002C14.8 9.15502 14.3071 10.5949 13.4689 11.7719L19.2486 17.5515C19.7172 18.0201 19.7172 18.7799 19.2486 19.2486C18.7799 19.7172 18.0201 19.7172 17.5515 19.2486L11.7719 13.4689C10.5949 14.3071 9.15502 14.8 7.60002 14.8C3.62357 14.8 0.400024 11.5765 0.400024 7.60002Z" fill="#64748B"/>
</svg>
