<svg width="12" height="12" viewBox="0 0 12 12" fill="none" xmlns="http://www.w3.org/2000/svg">
<path opacity="0.4" fill-rule="evenodd" clip-rule="evenodd" d="M9.52319 2.34277C9.63125 2.55889 9.54365 2.82168 9.32754 2.92974L3.18668 6.00017L9.32754 9.07059C9.54365 9.17865 9.63125 9.44144 9.52319 9.65756C9.41514 9.87368 9.15234 9.96127 8.93623 9.85322L2.6726 6.7214C2.45649 6.61335 2.36889 6.35055 2.47695 6.13444C2.50332 6.0817 2.5389 6.03662 2.58076 6.00017C2.5389 5.96371 2.50332 5.91863 2.47695 5.86589C2.36889 5.64978 2.45649 5.38698 2.6726 5.27893L8.93623 2.14711C9.15234 2.03906 9.41514 2.12665 9.52319 2.34277Z" fill="#14B8A6"/>
<path d="M11.8332 2.20841C11.8332 3.336 10.9191 4.25008 9.7915 4.25008C8.9922 4.25008 8.30018 3.79076 7.96498 3.12168C7.82731 2.84688 7.74984 2.53669 7.74984 2.20841C7.74984 1.08083 8.66392 0.166748 9.7915 0.166748C10.9191 0.166748 11.8332 1.08083 11.8332 2.20841Z" fill="#14B8A6"/>
<path d="M11.8332 9.79175C11.8332 10.9193 10.9191 11.8334 9.7915 11.8334C8.66392 11.8334 7.74984 10.9193 7.74984 9.79175C7.74984 9.46347 7.82731 9.15329 7.96498 8.87849C8.30018 8.2094 8.9922 7.75008 9.7915 7.75008C10.9191 7.75008 11.8332 8.66417 11.8332 9.79175Z" fill="#14B8A6"/>
<path d="M4.24984 6.00008C4.24984 6.32836 4.17236 6.63854 4.03469 6.91334C3.6995 7.58243 3.00747 8.04175 2.20817 8.04175C1.08059 8.04175 0.166504 7.12766 0.166504 6.00008C0.166504 4.8725 1.08059 3.95841 2.20817 3.95841C3.00747 3.95841 3.6995 4.41773 4.03469 5.08682C4.17236 5.36162 4.24984 5.6718 4.24984 6.00008Z" fill="#14B8A6"/>
</svg>
