<svg width="32" height="32" viewBox="0 0 32 32" fill="none" xmlns="http://www.w3.org/2000/svg">
<rect width="32" height="32" rx="16" fill="#F1F5F9"/>
<path d="M21 14C22.6569 14 24 12.6569 24 11C24 9.34315 22.6569 8 21 8C19.3431 8 18 9.34315 18 11C18 11.1255 18.0077 11.2492 18.0227 11.3706L13.0826 13.8406C12.543 13.3201 11.8089 13 11 13C9.34315 13 8 14.3431 8 16C8 17.6569 9.34315 19 11 19C11.8089 19 12.5431 18.6798 13.0826 18.1593L18.0227 20.6293C18.0077 20.7508 18 20.8745 18 21C18 22.6569 19.3431 24 21 24C22.6569 24 24 22.6569 24 21C24 19.3431 22.6569 18 21 18C20.1911 18 19.457 18.3201 18.9174 18.8406L13.9773 16.3706C13.9923 16.2492 14 16.1255 14 16C14 15.8745 13.9923 15.7508 13.9773 15.6293L18.9174 13.1593C19.4569 13.6798 20.1911 14 21 14Z" fill="#14B8A6"/>
</svg>
