<svg width="28" height="28" viewBox="0 0 28 28" fill="none" xmlns="http://www.w3.org/2000/svg">
<path fill-rule="evenodd" clip-rule="evenodd" d="M27.3332 14.0001C27.3332 21.3639 21.3636 27.3334 13.9998 27.3334C6.63604 27.3334 0.666504 21.3639 0.666504 14.0001C0.666504 6.63629 6.63604 0.666748 13.9998 0.666748C21.3636 0.666748 27.3332 6.63629 27.3332 14.0001ZM13.9998 7.66675C14.5521 7.66675 14.9998 8.11446 14.9998 8.66675V13.0001H19.3332C19.8855 13.0001 20.3332 13.4478 20.3332 14.0001C20.3332 14.5524 19.8855 15.0001 19.3332 15.0001H14.9998V19.3334C14.9998 19.8857 14.5521 20.3334 13.9998 20.3334C13.4476 20.3334 12.9998 19.8857 12.9998 19.3334V15.0001H8.6665C8.11422 15.0001 7.6665 14.5524 7.6665 14.0001C7.6665 13.4478 8.11422 13.0001 8.6665 13.0001H12.9998V8.66675C12.9998 8.11446 13.4476 7.66675 13.9998 7.66675Z" fill="#94A3B8"/>
</svg>
