<svg width="26" height="26" viewBox="0 0 26 26" fill="none" xmlns="http://www.w3.org/2000/svg">
<path fill-rule="evenodd" clip-rule="evenodd" d="M13 25.7999C20.0692 25.7999 25.7999 20.0692 25.7999 13C25.7999 5.93071 20.0692 0.199951 13 0.199951C5.93071 0.199951 0.199951 5.93071 0.199951 13C0.199951 20.0692 5.93071 25.7999 13 25.7999ZM12.2875 8.46867C11.7965 8.14136 11.1652 8.11084 10.645 8.38927C10.1247 8.6677 9.79995 9.20988 9.79995 9.79995V16.2C9.79995 16.79 10.1247 17.3322 10.645 17.6106C11.1652 17.8891 11.7965 17.8585 12.2875 17.5312L17.0875 14.3312C17.5326 14.0345 17.7999 13.5349 17.7999 13C17.7999 12.465 17.5326 11.9654 17.0875 11.6687L12.2875 8.46867Z" fill="#14B8A6"/>
</svg>
