<svg width="15" height="14" viewBox="0 0 15 14" fill="none" xmlns="http://www.w3.org/2000/svg">
<path fill-rule="evenodd" clip-rule="evenodd" d="M9.50001 11.5V12.5015C9.50014 12.6327 9.4744 12.7626 9.42427 12.8838C9.37414 13.005 9.30059 13.1151 9.20785 13.2078C9.1151 13.3006 9.00497 13.3741 8.88377 13.4243C8.76257 13.4744 8.63267 13.5001 8.50151 13.5H0.998506C0.867015 13.4998 0.736855 13.4737 0.615474 13.4231C0.494093 13.3726 0.383875 13.2985 0.291129 13.2053C0.198384 13.1121 0.124932 13.0015 0.0749769 12.8799C0.0250221 12.7583 -0.000454235 12.628 6.12946e-06 12.4965V1.0035C6.12946e-06 0.449 0.450006 0 1.00451 0H6.00001V3.001C6.00001 3.5565 6.44901 4 7.00301 4H9.50001V5H5.00351C4.80633 4.99974 4.61103 5.03831 4.42875 5.11353C4.24648 5.18874 4.08081 5.29912 3.9412 5.43836C3.80159 5.57761 3.69077 5.74298 3.61507 5.92505C3.53937 6.10712 3.50027 6.30232 3.50001 6.4995V10C3.49974 10.1974 3.53848 10.3928 3.61398 10.5751C3.68949 10.7575 3.80028 10.9231 3.93999 11.0625C4.07971 11.2019 4.24558 11.3123 4.42809 11.3874C4.61061 11.4624 4.80616 11.5007 5.00351 11.5H9.50001ZM6.50001 0V2.9985C6.50001 3.2755 6.72551 3.5 6.99501 3.5H9.50001L6.50001 0ZM4.99751 5.5C4.44651 5.5 4.00001 5.95 4.00001 6.496V10.004C4.00106 10.2681 4.10654 10.521 4.29342 10.7076C4.48031 10.8942 4.73341 10.9993 4.99751 11H13.5025C14.0535 11 14.5 10.55 14.5 10.004V6.496C14.499 6.23191 14.3935 5.97896 14.2066 5.79236C14.0197 5.60576 13.7666 5.50066 13.5025 5.5H4.99751ZM6.00001 8.25L5.00001 6.5H5.50001L6.25001 7.8125L7.00001 6.5H7.50001L6.50001 8.25L7.50001 10H7.00001L6.25001 8.6875L5.50001 10H5.00001L6.00001 8.25ZM10.5 9.5V10H8.00001V6.5H8.50001V9.5H10.5ZM12.0025 6.5C11.8709 6.49954 11.7406 6.52507 11.6189 6.57513C11.4972 6.62519 11.3866 6.6988 11.2935 6.79171C11.2003 6.88463 11.1265 6.99503 11.0761 7.11658C11.0257 7.23813 10.9999 7.36843 11 7.5C11 8.0525 11.444 8.5 12 8.5H12.495C12.774 8.5 13 8.722 13 9C13 9.276 12.7785 9.5 12.5005 9.5H11.9995C11.7235 9.5 11.5 9.272 11.5 9.002V8.997H11V8.9995C10.9999 9.13107 11.0258 9.26137 11.0762 9.38292C11.1266 9.50446 11.2005 9.61487 11.2936 9.70782C11.3867 9.80076 11.4973 9.87441 11.6189 9.92455C11.7406 9.97469 11.8709 10.0003 12.0025 10H12.4975C12.6291 10.0005 12.7594 9.97493 12.8811 9.92487C13.0028 9.87481 13.1134 9.8012 13.2065 9.70829C13.2997 9.61537 13.3736 9.50497 13.4239 9.38342C13.4743 9.26187 13.5001 9.13157 13.5 9C13.5 8.4475 13.056 8 12.5 8H12.005C11.726 8 11.5 7.778 11.5 7.5C11.5 7.224 11.7215 7 11.9995 7H12.5005C12.7765 7 13 7.2265 13 7.5H13.5C13.5 7.36847 13.4741 7.23823 13.4236 7.11674C13.3732 6.99525 13.2994 6.8849 13.2062 6.79201C13.1131 6.69912 13.0026 6.62551 12.881 6.5754C12.7593 6.52529 12.629 6.49967 12.4975 6.5H12.0025Z" fill="white"/>
</svg>
